<svg width="28" height="27" viewBox="0 0 28 27" fill="none" xmlns="http://www.w3.org/2000/svg">
<path d="M21.4133 25.9999C21.2001 26.0008 20.9898 25.9505 20.8 25.8533L14 22.2933L7.19999 25.8533C6.97918 25.9694 6.73023 26.0212 6.48142 26.0029C6.23262 25.9845 5.99396 25.8968 5.79256 25.7495C5.59116 25.6023 5.43511 25.4015 5.34214 25.17C5.24917 24.9385 5.22302 24.6856 5.26666 24.4399L6.59999 16.9333L1.10666 11.5999C0.935266 11.4289 0.813684 11.2144 0.754959 10.9795C0.696234 10.7446 0.702582 10.4982 0.773322 10.2666C0.850602 10.0296 0.992757 9.81908 1.18366 9.65882C1.37455 9.49856 1.60655 9.39502 1.85332 9.35995L9.45332 8.25328L12.8 1.41328C12.9092 1.18785 13.0796 0.997736 13.2919 0.864711C13.5041 0.731686 13.7495 0.661133 14 0.661133C14.2505 0.661133 14.4959 0.731686 14.7081 0.864711C14.9203 0.997736 15.0908 1.18785 15.2 1.41328L18.5867 8.23995L26.1867 9.34661C26.4334 9.38169 26.6654 9.48523 26.8563 9.64549C27.0472 9.80575 27.1894 10.0163 27.2667 10.2533C27.3374 10.4848 27.3437 10.7313 27.285 10.9662C27.2263 11.2011 27.1047 11.4156 26.9333 11.5866L21.44 16.9199L22.7733 24.4266C22.8209 24.6766 22.796 24.935 22.7015 25.1712C22.607 25.4075 22.4469 25.6118 22.24 25.7599C21.9985 25.9291 21.7078 26.0135 21.4133 25.9999Z" fill="#DADADA"/>
</svg>
