<svg width="185" height="200" viewBox="0 0 185 200" fill="none" xmlns="http://www.w3.org/2000/svg">
<path d="M50.2252 77.8315C32.8925 91.8064 11.4363 101.33 3.81041 117.349C-3.77878 133.367 2.49701 155.809 15.7776 169.967C29.0602 184.088 49.313 189.922 68.1098 194.414C86.9026 198.939 104.199 202.113 115.759 195.4C127.327 188.65 133.165 171.973 141.776 156.939C150.387 141.942 161.809 128.551 164.399 112.167C166.991 95.7466 160.75 76.2615 147.541 61.5922C134.305 46.8883 114.044 36.9533 97.3324 41.1949C80.6573 45.4283 67.5213 63.8545 50.2252 77.8315Z" fill="#F0F0F0"/>
<path d="M74.0357 93.3981C74.1327 93.3981 74.2275 93.3692 74.3079 93.3149C74.3883 93.2607 74.4507 93.1837 74.487 93.0937C74.5234 93.0038 74.532 92.905 74.5118 92.8101C74.4916 92.7152 74.4435 92.6286 74.3737 92.5612L36.8594 56.1445C36.803 56.09 36.7342 56.0499 36.6589 56.0277C36.5836 56.0055 36.504 56.0018 36.427 56.017C36.35 56.0322 36.2778 56.0658 36.2166 56.115C36.1554 56.1641 36.107 56.2274 36.0755 56.2993L23.8863 84.2552C23.8565 84.3229 23.8424 84.3965 23.8454 84.4704C23.8484 84.5443 23.8682 84.6165 23.9034 84.6816C23.9385 84.7467 23.9882 84.8028 24.0484 84.8457C24.1086 84.8887 24.1779 84.9172 24.2508 84.9293L73.9542 93.392C73.9812 93.3961 74.0084 93.3981 74.0357 93.3981ZM36.6864 57.3337L72.5716 92.1682L25.0226 84.074L36.6864 57.3337Z" fill="#AAD6FF"/>
<path d="M79.9627 93.8728C79.9627 72.9298 80.37 51.8584 108.086 51.8584C133.386 51.8584 135.535 80.9567 135.663 91.4049C135.791 102.008 139.125 108.159 143.272 112.904V163.159C129.562 175.562 111.073 187.594 102.152 187.594C94.0415 187.594 78.9934 181.907 66.7554 174.908V124.745C73.7419 116.52 79.9627 107.155 79.9627 93.8728Z" fill="#FF50C0"/>
<path d="M161.515 138.003H161.537C161.601 138 161.664 137.984 161.722 137.957C161.78 137.93 161.832 137.892 161.875 137.844C161.918 137.797 161.951 137.742 161.973 137.682C161.995 137.621 162.004 137.558 162.001 137.494C161.494 126.701 156.149 121.763 150.492 116.544C144.231 110.768 137.756 104.793 137.576 89.9793C137.483 82.3269 136.41 75.2305 134.471 69.4577C134.451 69.397 134.419 69.3409 134.377 69.2926C134.335 69.2443 134.283 69.2047 134.226 69.1762C134.169 69.1476 134.107 69.1306 134.043 69.1262C133.979 69.1217 133.915 69.1299 133.854 69.1502C133.793 69.1705 133.737 69.2026 133.689 69.2446C133.641 69.2866 133.601 69.3377 133.572 69.395C133.544 69.4523 133.527 69.5147 133.523 69.5785C133.518 69.6424 133.526 69.7065 133.547 69.7672C135.455 75.4464 136.509 82.4389 136.601 89.9915C136.786 105.225 143.418 111.342 149.837 117.259C155.335 122.34 160.543 127.139 161.036 137.54C161.042 137.664 161.095 137.78 161.184 137.866C161.273 137.952 161.391 138.001 161.515 138.003Z" fill="#1000B8"/>
<path d="M103.578 186.669C113.963 186.669 137.315 170.527 151.251 156.096C151.341 156.003 151.39 155.879 151.388 155.75C151.385 155.621 151.332 155.498 151.239 155.408C151.146 155.318 151.021 155.269 150.892 155.272C150.763 155.274 150.64 155.327 150.551 155.42C136.751 169.711 113.729 185.696 103.578 185.696C97.5099 185.696 86.9151 182.376 75.9315 177.035C64.5894 171.519 55.5015 165.174 51.6225 160.059C51.5444 159.956 51.4287 159.888 51.3008 159.871C51.1728 159.853 51.0432 159.887 50.9403 159.965C50.8374 160.043 50.7698 160.159 50.7522 160.287C50.7346 160.415 50.7686 160.544 50.8466 160.647C54.8153 165.879 64.0315 172.331 75.5059 177.911C86.6158 183.313 97.3714 186.669 103.578 186.669Z" fill="#1000B8"/>
<path d="M49.6164 150.458C49.7267 150.458 49.8337 150.421 49.9199 150.352C50.0061 150.283 50.0664 150.187 50.0908 150.079C51.8848 142.287 57.6576 135.862 63.7685 129.059C65.988 126.587 68.2849 124.031 70.4434 121.348C70.5212 121.247 70.5565 121.12 70.5416 120.993C70.5267 120.867 70.4629 120.751 70.3638 120.671C70.2647 120.591 70.1382 120.553 70.0115 120.566C69.8847 120.578 69.7679 120.639 69.6859 120.737C67.5437 123.4 65.255 125.946 63.0436 128.409C56.8472 135.308 50.9929 141.822 49.1419 149.862C49.1274 149.924 49.1254 149.988 49.1359 150.052C49.1463 150.115 49.1692 150.175 49.203 150.229C49.2369 150.284 49.2811 150.331 49.3332 150.368C49.3852 150.405 49.4441 150.432 49.5064 150.446C49.5425 150.454 49.5794 150.458 49.6164 150.458Z" fill="#1000B8"/>
<path d="M74.556 115.345C74.6372 115.345 74.717 115.324 74.7881 115.285C74.8592 115.246 74.9194 115.19 74.9633 115.121C79.6813 107.742 81.8764 100.54 81.8764 92.4474C81.8764 82.769 81.8764 71.7996 85.501 63.7868C89.4147 55.1286 97.2706 50.9196 109.513 50.9196C116.041 50.9196 121.498 52.9131 125.736 56.8431C125.782 56.8896 125.837 56.9263 125.898 56.9509C125.958 56.9755 126.024 56.9876 126.089 56.9865C126.155 56.9854 126.219 56.971 126.279 56.9443C126.339 56.9176 126.393 56.8791 126.437 56.8311C126.482 56.7831 126.516 56.7265 126.539 56.6649C126.561 56.6032 126.57 56.5377 126.567 56.4723C126.563 56.4068 126.546 56.3428 126.517 56.2841C126.488 56.2254 126.447 56.1731 126.397 56.1304C121.975 52.0274 116.293 49.9463 109.513 49.9463C96.8471 49.9463 88.702 54.3426 84.6132 63.3857C80.9031 71.5959 80.9031 82.6733 80.9031 92.4474C80.9031 100.338 78.7568 107.375 74.1447 114.59C74.0753 114.699 74.052 114.831 74.0798 114.957C74.1077 115.083 74.1845 115.192 74.2933 115.262C74.3708 115.315 74.4621 115.344 74.556 115.345Z" fill="#1000B8"/>
<path d="M143.274 177.49C143.266 180.665 142.001 183.708 139.756 185.954C137.511 188.199 134.468 189.465 131.293 189.473H78.7385C75.5631 189.465 72.5203 188.199 70.2751 185.954C68.03 183.708 66.7651 180.665 66.757 177.49V152.212C75.7167 135.465 90.1477 124.596 106.426 124.596C121.087 124.596 134.257 133.421 143.282 147.416L143.274 177.49Z" fill="#0059CB"/>
<path fill-rule="evenodd" clip-rule="evenodd" d="M184.462 160.756C184.462 158.162 183.693 155.626 182.252 153.47C180.81 151.313 178.762 149.632 176.365 148.639C173.969 147.646 171.332 147.387 168.788 147.893C166.243 148.399 163.906 149.648 162.072 151.482C160.238 153.316 158.989 155.653 158.483 158.198C157.977 160.742 158.236 163.379 159.229 165.775C160.222 168.172 161.903 170.22 164.06 171.662C166.216 173.103 168.752 173.872 171.346 173.872C174.825 173.871 178.16 172.489 180.62 170.03C183.079 167.57 184.461 164.235 184.462 160.756V160.756Z" fill="#C7EBFF"/>
<path d="M150.095 50.551C150.21 50.5508 150.321 50.5104 150.409 50.437L175.478 29.3534C175.576 29.27 175.638 29.151 175.649 29.0224C175.66 28.8939 175.619 28.7662 175.537 28.6672L151.572 0.173587C151.531 0.124612 151.48 0.0842295 151.423 0.0547511C151.367 0.0252728 151.305 0.00727664 151.241 0.00179203C151.177 -0.00369259 151.113 0.00344197 151.052 0.0227876C150.991 0.0421332 150.934 0.0733103 150.886 0.114536L125.815 21.1981C125.766 21.2393 125.726 21.2897 125.696 21.3464C125.667 21.4032 125.649 21.4652 125.643 21.529C125.638 21.5927 125.645 21.6569 125.664 21.7179C125.684 21.7789 125.715 21.8354 125.756 21.8843L149.723 50.3779C149.806 50.4756 149.925 50.537 150.053 50.549L150.095 50.551ZM174.482 28.9156L150.155 49.3781L126.817 21.6298L151.14 1.1734L174.482 28.9156Z" fill="#AAD6FF"/>
<path d="M66.7534 153.857C66.8445 153.857 66.9338 153.831 67.0112 153.783C67.0886 153.735 67.1509 153.666 67.1912 153.584C68.1136 151.695 69.1175 149.85 70.1763 148.086C70.2386 147.976 70.2555 147.846 70.2233 147.723C70.1912 147.601 70.1126 147.496 70.0042 147.43C69.8958 147.365 69.7662 147.344 69.6428 147.373C69.5195 147.401 69.4121 147.477 69.3435 147.583C68.2704 149.359 67.2522 151.232 66.3156 153.149C66.2874 153.206 66.2709 153.268 66.267 153.332C66.263 153.396 66.2717 153.46 66.2925 153.52C66.3134 153.58 66.3459 153.636 66.3883 153.684C66.4307 153.731 66.4821 153.77 66.5396 153.798C66.6052 153.834 66.6784 153.855 66.7534 153.857Z" fill="#1000B8"/>
<path d="M77.6906 137.836C77.7565 137.836 77.8217 137.823 77.8822 137.797C77.9428 137.771 77.9974 137.733 78.0429 137.685C86.6054 128.642 96.8418 123.861 107.646 123.861C113.637 123.861 119.489 125.345 125.038 128.272C125.095 128.301 125.156 128.32 125.22 128.326C125.284 128.332 125.348 128.325 125.409 128.306C125.47 128.287 125.527 128.256 125.576 128.216C125.625 128.175 125.666 128.125 125.696 128.068C125.726 128.011 125.744 127.95 125.75 127.886C125.756 127.822 125.749 127.758 125.73 127.697C125.711 127.636 125.681 127.579 125.64 127.53C125.599 127.481 125.549 127.44 125.492 127.41C119.801 124.417 113.804 122.888 107.646 122.888C96.5669 122.888 86.0862 127.775 77.3363 137.015C77.2721 137.084 77.2295 137.171 77.2136 137.264C77.1978 137.357 77.2094 137.452 77.247 137.539C77.2846 137.625 77.3466 137.699 77.4254 137.75C77.5042 137.802 77.5964 137.83 77.6906 137.83V137.836Z" fill="#1000B8"/>
<path d="M143.275 144.847C143.374 144.848 143.471 144.818 143.552 144.762C143.658 144.688 143.73 144.575 143.753 144.448C143.776 144.321 143.748 144.19 143.674 144.084C140.894 140.03 137.603 136.352 133.882 133.141C133.833 133.099 133.777 133.068 133.716 133.048C133.655 133.028 133.591 133.021 133.527 133.026C133.464 133.031 133.402 133.049 133.345 133.078C133.288 133.107 133.237 133.147 133.196 133.196C133.154 133.244 133.123 133.301 133.103 133.361C133.083 133.422 133.076 133.486 133.081 133.55C133.086 133.614 133.104 133.676 133.133 133.733C133.162 133.79 133.202 133.84 133.251 133.882C136.907 137.039 140.141 140.654 142.874 144.637C142.919 144.702 142.979 144.755 143.049 144.792C143.119 144.828 143.196 144.847 143.275 144.847Z" fill="#1000B8"/>
<path d="M75.4867 194.698H134.539C138.11 194.694 141.535 193.273 144.061 190.748C146.587 188.223 148.009 184.8 148.015 181.228V83.6273C148.015 83.4982 147.963 83.3744 147.872 83.2832C147.781 83.1919 147.657 83.1406 147.528 83.1406C147.399 83.1406 147.275 83.1919 147.184 83.2832C147.093 83.3744 147.041 83.4982 147.041 83.6273V181.228C147.038 184.543 145.72 187.721 143.376 190.065C141.032 192.409 137.854 193.727 134.539 193.731H75.4867C72.1719 193.727 68.994 192.408 66.6501 190.064C64.3062 187.721 62.9877 184.543 62.9839 181.228C62.9839 181.099 62.9327 180.975 62.8414 180.884C62.7501 180.792 62.6264 180.741 62.4973 180.741C62.3682 180.741 62.2444 180.792 62.1532 180.884C62.0619 180.975 62.0106 181.099 62.0106 181.228C62.0165 184.8 63.4384 188.223 65.9646 190.748C68.4907 193.273 71.915 194.694 75.4867 194.698Z" fill="#1000B8"/>
<path d="M62.4875 152.266C62.6166 152.266 62.7404 152.215 62.8317 152.123C62.9229 152.032 62.9742 151.908 62.9742 151.779V32.643C62.9785 29.3284 64.2971 26.1508 66.6409 23.8071C68.9847 21.4633 72.1623 20.1446 75.4769 20.1403H134.529C137.844 20.1441 141.022 21.4626 143.365 23.8065C145.709 26.1504 147.028 29.3283 147.032 32.643V60.0696C147.032 60.1987 147.083 60.3225 147.174 60.4137C147.265 60.505 147.389 60.5563 147.518 60.5563C147.647 60.5563 147.771 60.505 147.862 60.4137C147.954 60.3225 148.005 60.1987 148.005 60.0696V32.643C148.001 29.0703 146.579 25.6451 144.053 23.1188C141.527 20.5925 138.102 19.1713 134.529 19.167H75.4769C71.9042 19.1713 68.479 20.5925 65.9527 23.1188C63.4263 25.6451 62.0052 29.0703 62.0009 32.643V151.779C62.0009 151.843 62.0134 151.906 62.0379 151.966C62.0624 152.025 62.0982 152.078 62.1434 152.123C62.1886 152.169 62.2422 152.204 62.3013 152.229C62.3603 152.253 62.4236 152.266 62.4875 152.266Z" fill="#1000B8"/>
<path d="M139.157 186.995C139.275 186.996 139.389 186.953 139.477 186.875C140.817 185.706 141.893 184.264 142.63 182.645C143.368 181.027 143.751 179.269 143.753 177.49V36.3764C143.75 33.0704 142.435 29.9008 140.098 27.563C137.76 25.2251 134.591 23.91 131.285 23.9062H93.4875C93.3636 23.9143 93.2474 23.9691 93.1625 24.0597C93.0776 24.1503 93.0304 24.2698 93.0304 24.3939C93.0304 24.5181 93.0776 24.6376 93.1625 24.7282C93.2474 24.8187 93.3636 24.8736 93.4875 24.8816H131.289C134.337 24.8849 137.258 26.0969 139.413 28.2519C141.568 30.4069 142.78 33.3288 142.784 36.3764V177.49C142.781 179.13 142.427 180.751 141.747 182.243C141.066 183.735 140.074 185.065 138.837 186.142C138.763 186.207 138.71 186.294 138.686 186.39C138.661 186.486 138.667 186.587 138.702 186.68C138.737 186.772 138.799 186.852 138.88 186.909C138.961 186.965 139.058 186.995 139.157 186.995Z" fill="#1000B8"/>
<path d="M78.7353 189.96H114.698C114.827 189.96 114.951 189.909 115.042 189.818C115.133 189.727 115.185 189.603 115.185 189.474C115.185 189.345 115.133 189.221 115.042 189.13C114.951 189.038 114.827 188.987 114.698 188.987H78.7353C75.6875 188.983 72.7656 187.771 70.6107 185.615C68.4558 183.46 67.2438 180.538 67.2405 177.49V36.3765C67.2391 33.9451 68.0095 31.5761 69.4407 29.6106C70.8719 27.6452 72.89 26.1847 75.2044 25.4397C75.3273 25.3997 75.4292 25.3126 75.4878 25.1974C75.5464 25.0823 75.5569 24.9486 75.517 24.8257C75.477 24.7029 75.3899 24.6009 75.2747 24.5423C75.1596 24.4837 75.0259 24.4732 74.903 24.5131C72.393 25.3216 70.2043 26.9059 68.6524 29.0379C67.1004 31.1699 66.2652 33.7395 66.2672 36.3765V177.49C66.2704 180.796 67.585 183.966 69.9225 186.304C72.2599 188.641 75.4293 189.957 78.7353 189.96Z" fill="#1000B8"/>
<path d="M87.3725 31.3312H119.33C119.394 31.3312 119.457 31.3186 119.516 31.2941C119.575 31.2697 119.629 31.2338 119.674 31.1886C119.719 31.1434 119.755 31.0898 119.779 31.0307C119.804 30.9717 119.816 30.9084 119.816 30.8445C119.816 30.7806 119.804 30.7173 119.779 30.6582C119.755 30.5992 119.719 30.5456 119.674 30.5004C119.629 30.4552 119.575 30.4193 119.516 30.3949C119.457 30.3704 119.394 30.3578 119.33 30.3578H87.3725C86.2781 30.3567 85.2289 29.9215 84.4551 29.1477C83.6812 28.3739 83.246 27.3246 83.2449 26.2303V25.9798C83.2437 25.4935 83.3293 25.0108 83.4974 24.5544C83.5195 24.4944 83.5295 24.4306 83.5269 24.3667C83.5243 24.3028 83.5092 24.24 83.4823 24.182C83.4555 24.1239 83.4175 24.0717 83.3704 24.0284C83.3234 23.985 83.2683 23.9514 83.2083 23.9293C83.1483 23.9072 83.0845 23.8972 83.0206 23.8998C82.9566 23.9024 82.8939 23.9176 82.8358 23.9444C82.7778 23.9713 82.7256 24.0093 82.6822 24.0563C82.6389 24.1033 82.6052 24.1584 82.5831 24.2185C82.3761 24.7798 82.2706 25.3734 82.2716 25.9717V26.2221C82.2711 27.5759 82.808 28.8745 83.7645 29.8325C84.721 30.7905 86.0187 31.3295 87.3725 31.3312Z" fill="#1000B8"/>
<path d="M86.8961 184.82H123.13C123.259 184.82 123.382 184.769 123.474 184.677C123.565 184.586 123.616 184.462 123.616 184.333C123.616 184.204 123.565 184.08 123.474 183.989C123.382 183.898 123.259 183.847 123.13 183.847H86.8961C86.767 183.847 86.6432 183.898 86.552 183.989C86.4607 184.08 86.4094 184.204 86.4094 184.333C86.4094 184.462 86.4607 184.586 86.552 184.677C86.6432 184.769 86.767 184.82 86.8961 184.82Z" fill="#1000B8"/>
<path d="M121.275 107.807C120.461 112.49 120.001 125.547 120.687 132.348C118.076 134.547 106.606 136.538 98.9802 133.584C100.011 129.807 100.56 120.806 99.6665 115.312C104.545 113.527 121.275 107.807 121.275 107.807Z" fill="white"/>
<path d="M110.137 134.529C115.238 134.392 120.233 133.203 122.015 131.703C122.076 131.652 122.123 131.587 122.153 131.513C122.183 131.44 122.194 131.36 122.186 131.281C121.946 128.905 121.834 125.626 121.858 121.804C121.858 121.74 121.846 121.677 121.822 121.618C121.799 121.558 121.763 121.504 121.718 121.459C121.673 121.413 121.62 121.377 121.561 121.352C121.502 121.327 121.439 121.314 121.375 121.313C121.247 121.313 121.123 121.364 121.032 121.455C120.941 121.546 120.889 121.669 120.889 121.798C120.864 125.512 120.97 128.721 121.196 131.11C119.61 132.232 115.183 133.419 110.115 133.554C109.986 133.555 109.863 133.608 109.773 133.701C109.683 133.794 109.633 133.918 109.635 134.047C109.637 134.176 109.69 134.299 109.783 134.389C109.875 134.479 110 134.529 110.129 134.527L110.137 134.529Z" fill="#1000B8"/>
<path d="M99.9993 133.053C100.106 133.053 100.21 133.018 100.295 132.953C100.38 132.888 100.441 132.798 100.47 132.695C101.488 128.936 102.038 120.172 101.227 114.615C105.809 112.953 118.452 108.62 121.69 107.512C121.433 109.324 121.217 111.972 121.069 115.099C121.062 115.228 121.108 115.355 121.195 115.45C121.282 115.546 121.403 115.603 121.532 115.609C121.661 115.616 121.787 115.57 121.883 115.483C121.979 115.397 122.036 115.275 122.042 115.146C122.209 111.609 122.476 108.593 122.775 106.873C122.79 106.789 122.782 106.704 122.753 106.624C122.725 106.545 122.676 106.474 122.611 106.419C122.547 106.364 122.47 106.327 122.386 106.311C122.303 106.296 122.218 106.302 122.138 106.329C121.971 106.386 105.345 112.069 100.519 113.837C100.412 113.876 100.323 113.951 100.266 114.048C100.209 114.146 100.187 114.261 100.205 114.372C101.085 119.783 100.555 128.679 99.5289 132.438C99.4952 132.563 99.5123 132.696 99.5764 132.808C99.6405 132.92 99.7465 133.003 99.871 133.037C99.9128 133.048 99.956 133.054 99.9993 133.053Z" fill="#1000B8"/>
<path d="M104.885 118.599C92.2331 118.599 81.9768 104.924 81.9768 88.0548C81.9768 71.1858 92.2331 57.5107 104.885 57.5107C117.537 57.5107 127.793 71.1858 127.793 88.0548C127.793 104.924 117.537 118.599 104.885 118.599Z" fill="white"/>
<path d="M106.311 117.659C108.186 117.658 110.05 117.366 111.835 116.792C111.958 116.753 112.061 116.666 112.12 116.552C112.18 116.437 112.191 116.303 112.152 116.18C112.113 116.057 112.026 115.954 111.912 115.895C111.797 115.836 111.663 115.824 111.54 115.863C109.85 116.404 108.086 116.679 106.311 116.678C98.7257 116.678 91.7108 111.587 87.5425 103.061C87.516 103.001 87.4777 102.947 87.4299 102.903C87.382 102.858 87.3257 102.823 87.2641 102.801C87.2026 102.778 87.1372 102.769 87.0717 102.772C87.0063 102.776 86.9423 102.792 86.8835 102.821C86.8246 102.85 86.7722 102.89 86.7294 102.94C86.6865 102.989 86.6541 103.047 86.6341 103.109C86.6141 103.172 86.6068 103.237 86.6128 103.303C86.6188 103.368 86.6379 103.431 86.669 103.489C90.9981 112.365 98.345 117.659 106.311 117.659Z" fill="#1000B8"/>
<path d="M127.355 99.2024C127.458 99.2024 127.558 99.1699 127.641 99.1096C127.725 99.0493 127.787 98.9642 127.819 98.8664C129.084 94.9108 129.72 90.7813 129.705 86.6284C129.705 69.5237 119.212 55.5977 106.31 55.5977C93.4082 55.5977 82.9153 69.5197 82.9153 86.6284C82.9096 89.9169 83.3056 93.1938 84.0943 96.3862C84.1256 96.5115 84.2055 96.6193 84.3162 96.6857C84.4269 96.7521 84.5596 96.7719 84.6848 96.7406C84.8101 96.7092 84.9179 96.6294 84.9843 96.5187C85.0507 96.4079 85.0705 96.2753 85.0392 96.15C84.269 93.0349 83.8826 89.8373 83.8887 86.6284C83.8887 70.0552 93.9479 56.571 106.31 56.571C118.672 56.571 128.731 70.047 128.731 86.6284C128.748 90.6793 128.13 94.7077 126.899 98.5671C126.86 98.6897 126.871 98.8228 126.93 98.9373C126.988 99.0517 127.09 99.1383 127.212 99.178C127.259 99.1925 127.307 99.2007 127.355 99.2024Z" fill="#1000B8"/>
<path d="M92.741 91.1468C92.0246 91.1468 91.4439 89.844 91.4439 88.237C91.4439 86.6299 92.0246 85.3271 92.741 85.3271C93.4574 85.3271 94.0381 86.6299 94.0381 88.237C94.0381 89.844 93.4574 91.1468 92.741 91.1468Z" fill="#1000B8"/>
<path d="M107.738 91.1468C107.022 91.1468 106.441 89.844 106.441 88.237C106.441 86.6299 107.022 85.3271 107.738 85.3271C108.454 85.3271 109.035 86.6299 109.035 88.237C109.035 89.844 108.454 91.1468 107.738 91.1468Z" fill="#1000B8"/>
<path d="M96.6996 99.5053C96.8186 99.5055 96.9333 99.4612 97.0213 99.3811C98.9558 97.6665 99.9393 94.9787 100.424 93.0279C100.439 92.9659 100.443 92.9014 100.433 92.8381C100.424 92.7749 100.402 92.7141 100.369 92.6593C100.336 92.6044 100.293 92.5566 100.241 92.5185C100.19 92.4805 100.132 92.4529 100.07 92.4374C100.008 92.4219 99.9431 92.4187 99.8798 92.4282C99.8166 92.4376 99.7558 92.4593 99.701 92.4922C99.6461 92.5251 99.5983 92.5685 99.5603 92.6199C99.5222 92.6713 99.4946 92.7297 99.4791 92.7917C99.0291 94.6101 98.1229 97.1045 96.3758 98.6541C96.3018 98.7197 96.2494 98.8062 96.2258 98.9022C96.2021 98.9983 96.2083 99.0992 96.2434 99.1917C96.2786 99.2841 96.3411 99.3636 96.4226 99.4197C96.5041 99.4757 96.6007 99.5056 96.6996 99.5053Z" fill="#1000B8"/>
<path d="M100.427 90.7211C100.548 90.7207 100.664 90.6758 100.753 90.595C100.843 90.5142 100.899 90.4032 100.912 90.2833C100.962 89.8247 100.988 89.3639 100.991 88.9027C100.991 88.7736 100.94 88.6498 100.849 88.5586C100.757 88.4673 100.634 88.416 100.505 88.416C100.375 88.416 100.252 88.4673 100.16 88.5586C100.069 88.6498 100.018 88.7736 100.018 88.9027C100.018 89.2672 99.9914 89.7172 99.9425 90.1835C99.9287 90.3103 99.9655 90.4373 100.045 90.5372C100.124 90.6371 100.239 90.7017 100.366 90.717L100.427 90.7211Z" fill="#1000B8"/>
<path d="M109.034 107.072C109.591 107.072 110.136 106.907 110.6 106.598C111.063 106.289 111.424 105.849 111.638 105.334C111.851 104.82 111.907 104.253 111.799 103.707C111.69 103.16 111.422 102.658 111.028 102.264C110.634 101.87 110.132 101.602 109.585 101.493C109.039 101.385 108.472 101.441 107.958 101.654C107.443 101.868 107.003 102.229 106.694 102.692C106.385 103.156 106.22 103.7 106.22 104.258C106.222 105.004 106.519 105.718 107.046 106.246C107.574 106.773 108.288 107.07 109.034 107.072ZM109.034 102.415C109.397 102.415 109.751 102.522 110.053 102.724C110.354 102.925 110.589 103.211 110.727 103.546C110.866 103.881 110.902 104.25 110.832 104.605C110.761 104.961 110.587 105.287 110.33 105.543C110.074 105.8 109.747 105.974 109.392 106.045C109.036 106.116 108.668 106.079 108.333 105.941C107.998 105.802 107.712 105.567 107.511 105.266C107.309 104.964 107.202 104.61 107.202 104.247C107.204 103.763 107.399 103.3 107.742 102.958C108.085 102.617 108.55 102.425 109.034 102.425V102.415Z" fill="#1000B8"/>
<path d="M99.8926 63.9893C99.8757 64.0978 99.8477 64.2042 99.8091 64.307C98.6769 67.6669 86.893 88.9459 81.4338 92.7497C81.2403 89.4224 80.9166 75.7386 83.0465 71.8657C85.1764 67.9927 94.02 57.793 96.7954 57.793C99.5708 57.793 99.8844 64.0647 99.8844 64.0647" fill="#FF50C0"/>
<path d="M84.3974 90.4538C84.4635 90.4538 84.5288 90.4402 84.5894 90.4139C84.65 90.3877 84.7045 90.3492 84.7497 90.301C85.9362 89.0171 87.0413 87.6603 88.0586 86.2387C88.1348 86.1344 88.1664 86.0042 88.1465 85.8767C88.1267 85.7491 88.057 85.6347 87.9527 85.5586C87.8485 85.4824 87.7183 85.4508 87.5908 85.4706C87.4632 85.4905 87.3488 85.5602 87.2726 85.6644C86.2796 87.0525 85.201 88.3773 84.0431 89.6311C83.9807 89.7008 83.9397 89.7869 83.9248 89.8792C83.9099 89.9715 83.9218 90.0662 83.9591 90.1519C83.9964 90.2377 84.0576 90.3109 84.1352 90.363C84.2129 90.4151 84.3039 90.4437 84.3974 90.4456V90.4538Z" fill="#1000B8"/>
<path d="M90.4395 82.4222C90.5202 82.4227 90.5997 82.403 90.6708 82.3649C90.7419 82.3269 90.8024 82.2717 90.8468 82.2044C95.6646 74.8738 100.735 65.4886 101.494 63.2385C101.542 63.1063 101.577 62.97 101.598 62.8313C101.607 62.7679 101.603 62.7035 101.586 62.6417C101.57 62.5799 101.541 62.522 101.502 62.4712C101.463 62.4205 101.415 62.3778 101.36 62.3458C101.304 62.3138 101.243 62.2929 101.18 62.2845C101.116 62.2761 101.052 62.2802 100.99 62.2967C100.929 62.3132 100.871 62.3417 100.82 62.3805C100.769 62.4194 100.726 62.4678 100.694 62.5232C100.662 62.5785 100.642 62.6396 100.633 62.703C100.617 62.7771 100.595 62.85 100.568 62.9209C99.9062 64.8797 95.1168 73.9167 90.0302 81.6546C89.9598 81.7625 89.9348 81.8938 89.9607 82.0201C89.9867 82.1463 90.0614 82.2572 90.1687 82.3286C90.2473 82.3866 90.3418 82.4193 90.4395 82.4222Z" fill="#1000B8"/>
<path d="M94.4908 57.5121C94.4908 59.5484 113.07 94.7637 122.547 99.6874C126.448 102.288 133.962 103.216 133.962 101.174C133.962 99.1315 130.339 64.1137 122.628 60.1124C114.917 56.1112 103.595 51.4725 94.4908 57.5121Z" fill="#FF50C0"/>
<path d="M129.875 101.509C129.998 101.511 130.117 101.466 130.208 101.383C130.299 101.301 130.356 101.187 130.366 101.064C130.377 100.941 130.341 100.819 130.265 100.723C130.189 100.626 130.08 100.561 129.958 100.542C127.647 100.134 125.356 99.2791 123.833 98.265C123.819 98.2544 123.804 98.2448 123.788 98.2365C119.569 96.0455 112.538 86.8619 104.503 73.0438C104.433 72.9405 104.328 72.8676 104.206 72.8396C104.085 72.8117 103.958 72.831 103.851 72.8935C103.743 72.956 103.664 73.0571 103.628 73.1762C103.593 73.2952 103.604 73.4234 103.66 73.5345C108.431 81.7346 117.321 95.9498 123.316 99.0897C124.945 100.169 127.362 101.069 129.787 101.501C129.816 101.506 129.845 101.509 129.875 101.509Z" fill="#1000B8"/>
<path d="M98.7675 64.1427C98.8455 64.1422 98.9222 64.1233 98.9915 64.0878C99.105 64.0268 99.19 63.9236 99.228 63.8006C99.2661 63.6775 99.2543 63.5445 99.1952 63.43C96.886 58.9808 96.0145 56.8427 95.9921 56.4925C95.9921 56.4286 95.9795 56.3655 95.955 56.3065C95.9305 56.2476 95.8947 56.1941 95.8494 56.149C95.8042 56.104 95.7506 56.0684 95.6915 56.0441C95.6325 56.0199 95.5692 56.0075 95.5054 56.0078C95.376 56.0089 95.2522 56.0611 95.1611 56.153C95.0699 56.2449 95.0188 56.3691 95.0188 56.4986C95.0188 57.368 97.0937 61.4956 98.3297 63.88C98.3714 63.9599 98.4343 64.0267 98.5116 64.0731C98.5889 64.1195 98.6774 64.1436 98.7675 64.1427Z" fill="#1000B8"/>
<path d="M125.209 104.302C121.962 104.302 119.33 101.67 119.33 98.4236C119.33 95.1769 121.962 92.5449 125.209 92.5449C128.456 92.5449 131.088 95.1769 131.088 98.4236C131.088 101.67 128.456 104.302 125.209 104.302Z" fill="white"/>
<path d="M122.94 93.0173C123.037 93.0176 123.131 92.9885 123.211 92.9338C123.968 92.4248 124.841 92.1155 125.75 92.0347C126.658 91.9539 127.573 92.1042 128.407 92.4716C128.525 92.524 128.659 92.5274 128.78 92.481C128.9 92.4346 128.998 92.3422 129.05 92.2242C129.102 92.1062 129.106 91.9722 129.059 91.8517C129.013 91.7313 128.921 91.6341 128.803 91.5818C127.817 91.1474 126.737 90.9697 125.665 91.0651C124.592 91.1606 123.561 91.526 122.667 92.1275C122.581 92.1858 122.516 92.2704 122.481 92.3686C122.446 92.4669 122.444 92.5737 122.475 92.6733C122.505 92.773 122.567 92.8602 122.651 92.9221C122.734 92.984 122.836 93.0174 122.94 93.0173Z" fill="#1000B8"/>
<path d="M126.224 103.77C127.203 103.769 128.169 103.542 129.047 103.107C129.924 102.672 130.689 102.041 131.283 101.262C131.877 100.484 132.284 99.579 132.472 98.6179C132.659 97.6568 132.623 96.6654 132.366 95.7206C132.332 95.5958 132.249 95.4897 132.137 95.4256C132.025 95.3614 131.892 95.3445 131.767 95.3785C131.642 95.4125 131.536 95.4947 131.472 95.607C131.408 95.7193 131.391 95.8524 131.425 95.9772C131.553 96.4415 131.617 96.921 131.616 97.4026C131.616 98.2414 131.42 99.0686 131.044 99.8185C130.667 100.568 130.122 101.22 129.45 101.722C128.778 102.224 127.998 102.563 127.172 102.711C126.346 102.859 125.497 102.812 124.693 102.575C124.632 102.557 124.567 102.551 124.504 102.558C124.44 102.564 124.378 102.584 124.322 102.614C124.266 102.645 124.216 102.686 124.176 102.736C124.136 102.786 124.106 102.843 124.088 102.905C124.07 102.966 124.064 103.03 124.071 103.094C124.078 103.157 124.097 103.219 124.128 103.275C124.158 103.331 124.2 103.381 124.25 103.421C124.299 103.461 124.357 103.491 124.418 103.509C125.005 103.682 125.613 103.77 126.224 103.77Z" fill="#1000B8"/>
</svg>
