<svg width="177" height="202" viewBox="0 0 177 202" fill="none" xmlns="http://www.w3.org/2000/svg">
<path d="M157.631 14.2728C173.207 25.032 178.885 49.9569 174.846 70.1927C170.807 90.4285 157.02 105.971 144.536 117.23C132.012 128.491 120.753 135.425 107.33 143.339C93.9089 151.294 78.285 160.229 59.6868 160.678C41.1253 161.125 19.5856 153.09 8.85532 137.383C-1.91357 121.678 -1.87306 98.3426 3.71681 77.588C9.26424 56.8218 20.361 38.6248 35.8229 27.8231C51.2847 17.0214 71.1443 13.6093 93.8279 10.2222C116.511 6.83508 142.007 3.45184 157.631 14.2728Z" fill="#F0F0F0"/>
<path d="M45.534 146.155L23.1263 131.722L21.8301 158.344L45.534 146.155Z" fill="#C9EAFC"/>
<path fill-rule="evenodd" clip-rule="evenodd" d="M44.6777 0.523688C44.6777 0.234463 44.9122 0 45.2014 0H142.696C142.985 0 143.22 0.234463 143.22 0.523688V162.836C143.22 163.125 142.985 163.36 142.696 163.36H45.2014C44.9122 163.36 44.6777 163.125 44.6777 162.836V0.523688ZM45.7251 1.04738V162.313H142.173V1.04738H45.7251Z" fill="#1000B8"/>
<path d="M63.3229 107.283C60.445 109.289 38.1241 130.651 37.9486 135.097C37.773 139.543 44.744 177.821 45.8839 179.478H56.6085C56.6085 179.478 55.644 142.683 56.4349 141.725C57.2257 140.766 86.5252 124.459 86.5252 124.459C86.5252 124.459 77.0121 98.3018 63.3229 107.283Z" fill="#00EBE6"/>
<path fill-rule="evenodd" clip-rule="evenodd" d="M11.7356 67.3966C7.9682 67.3966 4.91414 70.4506 4.91414 74.218C4.91414 77.9854 7.9682 81.0395 11.7356 81.0395C15.503 81.0395 18.557 77.9854 18.557 74.218C18.557 70.4506 15.503 67.3966 11.7356 67.3966ZM4.29883 74.218C4.29883 70.1108 7.62838 66.7812 11.7356 66.7812C15.8428 66.7812 19.1723 70.1108 19.1723 74.218C19.1723 78.3252 15.8428 81.6548 11.7356 81.6548C7.62838 81.6548 4.29883 78.3252 4.29883 74.218Z" fill="#C9EAFC"/>
<path fill-rule="evenodd" clip-rule="evenodd" d="M20.9772 32.1524C19.3287 32.1524 17.9923 33.4888 17.9923 35.1373C17.9923 36.7859 19.3287 38.1223 20.9772 38.1223C22.6257 38.1223 23.9621 36.7859 23.9621 35.1373C23.9621 33.4888 22.6257 32.1524 20.9772 32.1524ZM17.377 35.1373C17.377 33.149 18.9888 31.5371 20.9772 31.5371C22.9655 31.5371 24.5774 33.149 24.5774 35.1373C24.5774 37.1257 22.9655 38.7376 20.9772 38.7376C18.9888 38.7376 17.377 37.1257 17.377 35.1373Z" fill="#C9EAFC"/>
<path fill-rule="evenodd" clip-rule="evenodd" d="M65.0715 102.273L80.734 121.5C80.9167 121.724 80.883 122.054 80.6588 122.237C80.4345 122.419 80.1047 122.386 79.922 122.161L63.895 102.487C63.8023 102.373 63.7616 102.225 63.7829 102.08C63.8041 101.935 63.8853 101.805 64.0068 101.723L64.301 102.156C64.0068 101.723 64.0069 101.723 64.0071 101.723L64.0105 101.72L64.0206 101.713C64.0295 101.707 64.0426 101.699 64.0599 101.687C64.0944 101.664 64.1455 101.63 64.2123 101.585C64.3461 101.496 64.5431 101.366 64.7974 101.201C65.306 100.87 66.044 100.398 66.9635 99.8323C68.8022 98.7012 71.3693 97.1931 74.2827 95.6861C77.1949 94.1797 80.4609 92.6702 83.6963 91.5395C86.9255 90.4111 90.1567 89.6484 92.9897 89.6618C93.1868 89.6627 93.3668 89.7743 93.4552 89.9505C94.0941 91.2232 115.345 131.152 127.708 154.38C129.344 157.454 130.825 160.235 132.081 162.596C132.217 162.851 132.12 163.169 131.865 163.304C131.609 163.44 131.292 163.344 131.156 163.088C129.896 160.721 128.41 157.928 126.767 154.842C114.855 132.459 94.6969 94.5851 92.6698 90.711C90.08 90.7536 87.0969 91.4607 84.0418 92.5283C80.8684 93.6373 77.6497 95.1236 74.7639 96.6164C71.8794 98.1085 69.3354 99.6029 67.5124 100.724C66.6011 101.285 65.8706 101.752 65.3684 102.079C65.2583 102.15 65.1591 102.215 65.0715 102.273Z" fill="#1000B8"/>
<path fill-rule="evenodd" clip-rule="evenodd" d="M88.8492 132.295C89.0735 132.113 89.4034 132.146 89.586 132.371L114.129 162.505C114.312 162.73 114.278 163.06 114.054 163.242C113.829 163.425 113.499 163.391 113.317 163.167L88.7739 133.032C88.5913 132.808 88.625 132.478 88.8492 132.295Z" fill="#1000B8"/>
<path fill-rule="evenodd" clip-rule="evenodd" d="M85.8592 123.123C85.8593 123.123 85.8594 123.123 85.3672 123.302C85.6218 123.76 85.6217 123.76 85.6215 123.76L85.2928 123.943C85.0781 124.063 84.763 124.238 84.3618 124.462C83.5592 124.91 82.4118 125.55 81.0324 126.322C78.2736 127.866 74.5872 129.933 70.8762 132.031C67.1649 134.129 63.4306 136.256 60.5755 137.918C59.1475 138.749 57.9422 139.462 57.0705 139.997C56.6342 140.264 56.2854 140.485 56.0356 140.651C55.9103 140.735 55.8145 140.802 55.7469 140.853C55.7363 140.86 55.727 140.868 55.7189 140.874C55.7032 140.946 55.686 141.056 55.6688 141.208C55.6344 141.513 55.6048 141.943 55.5803 142.488C55.5315 143.576 55.5043 145.084 55.494 146.874C55.4732 150.453 55.5195 155.137 55.5906 159.796C55.6617 164.453 55.7576 169.081 55.8356 172.545C55.8746 174.277 55.9092 175.718 55.934 176.725C55.9464 177.229 55.9564 177.625 55.9633 177.894C55.9667 178.029 55.9694 178.133 55.9712 178.202L55.9739 178.307C55.9739 178.307 55.9739 178.307 55.4504 178.321L55.9739 178.307C55.9776 178.449 55.9241 178.585 55.8255 178.687C55.7269 178.788 55.5917 178.845 55.4504 178.845H44.7259C44.553 178.845 44.3913 178.76 44.2937 178.617C44.2214 178.511 44.1624 178.375 44.1138 178.248C44.0613 178.111 44.0055 177.944 43.9469 177.751C43.8296 177.366 43.694 176.857 43.5436 176.246C43.2425 175.023 42.8762 173.368 42.4704 171.42C41.6585 167.523 40.6848 162.439 39.7524 157.27C38.82 152.101 37.9281 146.843 37.28 142.597C36.956 140.474 36.6924 138.602 36.5151 137.118C36.3396 135.649 36.2436 134.524 36.2672 133.919L36.2672 133.919C36.2851 133.47 36.4657 132.954 36.7281 132.414C36.996 131.862 37.3743 131.236 37.8374 130.555C38.764 129.193 40.057 127.573 41.5615 125.83C41.7505 125.611 42.0812 125.587 42.3002 125.776C42.5191 125.965 42.5433 126.296 42.3543 126.514C40.8614 128.244 39.5976 129.83 38.7034 131.144C38.2561 131.802 37.9079 132.382 37.6702 132.871C37.4271 133.372 37.323 133.731 37.3138 133.96C37.294 134.468 37.378 135.511 37.5551 136.994C37.7305 138.461 37.9922 140.322 38.3154 142.439C38.9616 146.673 39.8518 151.921 40.7831 157.084C41.7145 162.247 42.6863 167.321 43.4957 171.206C43.9006 173.149 44.2639 174.791 44.5606 175.996C44.7092 176.599 44.8396 177.087 44.9489 177.446C44.9915 177.586 45.0298 177.703 45.0638 177.798H54.9131C54.9064 177.536 54.8976 177.183 54.887 176.751C54.8621 175.743 54.8275 174.301 54.7885 172.569C54.7104 169.104 54.6145 164.473 54.5434 159.812C54.4723 155.152 54.4258 150.458 54.4466 146.868C54.457 145.074 54.4842 143.55 54.534 142.441C54.5589 141.889 54.5897 141.43 54.628 141.091C54.6471 140.922 54.6692 140.771 54.6961 140.648C54.7095 140.587 54.7262 140.523 54.7479 140.462C54.7663 140.41 54.8027 140.319 54.8728 140.234C54.9424 140.15 55.0432 140.071 55.1185 140.015C55.2081 139.947 55.3217 139.868 55.4545 139.78C55.7207 139.602 56.0826 139.374 56.523 139.104C57.4051 138.563 58.6185 137.845 60.0486 137.013C62.9096 135.347 66.6485 133.218 70.3608 131.119C74.0736 129.021 77.7615 126.952 80.5211 125.408C81.9009 124.636 83.0487 123.995 83.8515 123.547C84.2134 123.345 84.5052 123.183 84.7165 123.065C84.6484 122.89 84.5585 122.665 84.4477 122.395C84.1642 121.705 83.7434 120.727 83.1958 119.581C82.0993 117.287 80.5009 114.332 78.4862 111.663C76.4655 108.985 74.0619 106.643 71.3699 105.507C68.7173 104.388 65.7428 104.421 62.468 106.569C61.8623 106.992 60.3011 108.357 58.203 110.311C56.112 112.259 53.5182 114.762 50.8746 117.427C50.6709 117.633 50.3393 117.634 50.134 117.43C49.9287 117.226 49.9274 116.895 50.1311 116.69C52.7841 114.015 55.3877 111.502 57.4891 109.545C59.5768 107.6 61.1998 106.176 61.8752 105.705C61.879 105.703 61.883 105.7 61.8869 105.697C65.4544 103.354 68.7991 103.286 71.777 104.542C74.7169 105.782 77.256 108.294 79.3223 111.032C81.3947 113.778 83.0277 116.801 84.1408 119.13C84.6981 120.296 85.1268 121.292 85.4165 121.997C85.5614 122.349 85.6716 122.63 85.7458 122.822C85.7829 122.919 85.811 122.993 85.83 123.044C85.8395 123.069 85.8467 123.089 85.8516 123.102L85.8572 123.117L85.8592 123.123ZM55.7341 140.815C55.7354 140.811 55.7353 140.812 55.7335 140.816C55.7338 140.816 55.734 140.815 55.7341 140.815ZM85.3672 123.302L85.6218 123.76C85.8465 123.635 85.9472 123.365 85.8594 123.123L85.3672 123.302Z" fill="#1000B8"/>
<path d="M132.314 162.313C121.183 141.404 95.2436 92.7582 94.5299 91.3366C83.5353 91.2845 65.8438 103.307 65.8438 103.307L113.801 162.313H132.314Z" fill="#00EBE6"/>
<path fill-rule="evenodd" clip-rule="evenodd" d="M39.5566 178.321C39.5566 178.032 39.7911 177.797 40.0803 177.797H61.7859C62.0751 177.797 62.3096 178.032 62.3096 178.321C62.3096 178.61 62.0751 178.845 61.7859 178.845H40.0803C39.7911 178.845 39.5566 178.61 39.5566 178.321Z" fill="#1000B8"/>
<path fill-rule="evenodd" clip-rule="evenodd" d="M39.3633 182.754C39.3633 182.464 39.5977 182.23 39.887 182.23H61.5906C61.8798 182.23 62.1143 182.464 62.1143 182.754C62.1143 183.043 61.8798 183.277 61.5906 183.277H39.887C39.5977 183.277 39.3633 183.043 39.3633 182.754Z" fill="#1000B8"/>
<path d="M57.1367 183.911C57.0248 185.585 56.7509 188.558 56.7509 188.558L60.275 197.045L33.6816 202L47.9418 190.602L46.4546 183.919" fill="white"/>
<path fill-rule="evenodd" clip-rule="evenodd" d="M45.1826 182.243C45.4649 182.18 45.7447 182.358 45.8075 182.64L47.2947 189.324C47.3381 189.519 47.2666 189.722 47.1104 189.846L44.1612 192.203C43.9353 192.384 43.6057 192.347 43.4252 192.121C43.2446 191.895 43.2814 191.566 43.5073 191.385L46.2014 189.232L44.7852 182.868C44.7223 182.585 44.9003 182.305 45.1826 182.243Z" fill="#1000B8"/>
<path fill-rule="evenodd" clip-rule="evenodd" d="M56.0111 182.231C56.2998 182.25 56.5183 182.499 56.4994 182.788C56.444 183.631 56.3472 184.798 56.2644 185.75C56.223 186.227 56.1851 186.652 56.1574 186.957C56.1436 187.11 56.1324 187.232 56.1246 187.317L56.1244 187.319L59.5988 195.687C59.6593 195.832 59.6508 195.998 59.5756 196.137C59.5003 196.276 59.3664 196.373 59.211 196.402L32.6177 201.357C32.3815 201.401 32.1456 201.279 32.0456 201.061C31.9456 200.842 32.0071 200.584 32.1948 200.434L38.3151 195.542C38.541 195.361 38.8706 195.398 39.0512 195.624C39.2317 195.85 39.195 196.18 38.969 196.36L34.4847 199.944L58.3835 195.491L55.1074 187.601C55.0747 187.522 55.0617 187.437 55.0696 187.352L55.5911 187.4C55.0696 187.352 55.0696 187.352 55.0696 187.352L55.0697 187.351L55.0816 187.222C55.0894 187.137 55.1005 187.015 55.1143 186.863C55.1418 186.558 55.1797 186.135 55.221 185.66C55.3037 184.707 55.3997 183.551 55.4543 182.719C55.4732 182.431 55.7225 182.212 56.0111 182.231Z" fill="#1000B8"/>
<path d="M38.8674 75.1827C38.6745 77.6035 37.8856 89.5142 37.8856 90.5597C37.8856 91.6051 26.6306 104.762 25.5833 104.891C24.5359 105.02 18.3924 102.592 17.7848 102.592C17.1772 102.592 11.3231 103.807 10.3645 103.749C9.40583 103.691 10.1716 105.572 13.7863 105.541L11.923 105.348C11.0029 105.472 10.8216 105.541 9.98449 105.541C9.14736 105.541 9.56399 107.684 14.4903 107.684C15.42 108.597 14.4903 109.108 18.1398 109.978C21.7892 110.848 25.4367 112.121 26.2082 111.652C27.6317 110.207 29.387 108.496 32.3999 108.298C34.8168 106.834 48.4905 92.8762 48.7664 92.0951C49.0422 91.3139 49.3084 79.8448 49.3084 79.8448C49.3084 79.8448 46.7835 70.2101 38.8674 75.1827Z" fill="white"/>
<path d="M109.874 94.0644C107.14 91.2675 106.043 88.0849 105.535 86.5013C104.465 85.2224 87.0048 70.8639 86.0115 70.4203C85.0181 69.9766 75.584 66.8557 75.584 66.8557L79.6558 54.7617C81.006 55.4465 90.0254 60.1626 91.2059 61.0441C92.3864 61.9255 110.174 83.3071 110.61 83.8047C111.046 84.3024 114.225 84.7286 114.468 85.6699C115.215 88.5941 117.826 91.335 120.812 93.1057C120.868 93.9332 121.179 96.869 116.792 98.2539C114.178 97.4518 111.804 96.0121 109.885 94.0644" fill="white"/>
<path d="M41.5423 19.9048C50.8008 19.9048 55.2527 31.8638 56.5874 34.1784C61.7954 43.2441 72.4042 45.5588 72.4042 55.5889C72.4042 58.2893 46.9431 64.2688 45.4 64.2688C43.8569 64.2688 41.7351 59.2537 41.7351 52.1169C41.7351 45.5588 32.4766 44.4014 32.4766 33.4069C32.4766 24.9198 33.6339 19.9048 41.5423 19.9048Z" fill="#FF50C0"/>
<path fill-rule="evenodd" clip-rule="evenodd" d="M37.9452 73.6902C38.2335 73.7137 38.4482 73.9663 38.4248 74.2546C38.2274 76.683 37.4447 88.5678 37.4447 89.5891C37.4447 89.7199 37.4055 89.8371 37.3777 89.9096C37.3455 89.9934 37.3028 90.0814 37.2557 90.1691C37.1611 90.3451 37.0288 90.5565 36.8698 90.7928C36.5504 91.2671 36.0984 91.878 35.56 92.5727C34.4815 93.9641 33.036 95.7175 31.5602 97.4393C30.0845 99.161 28.5733 100.857 27.3628 102.134C26.7584 102.771 26.2232 103.31 25.802 103.696C25.5923 103.888 25.4025 104.051 25.2414 104.17C25.1611 104.23 25.0793 104.285 24.9996 104.329C24.9305 104.367 24.8172 104.424 24.6837 104.44C24.4599 104.468 24.1743 104.427 23.905 104.373C23.6158 104.315 23.2723 104.227 22.8998 104.12C22.1539 103.907 21.2585 103.612 20.3863 103.316C20.0144 103.19 19.6483 103.064 19.2985 102.944C18.8209 102.78 18.3734 102.626 17.9823 102.496C17.6449 102.384 17.3589 102.292 17.1409 102.229C17.0316 102.197 16.9452 102.174 16.881 102.16C16.8398 102.15 16.8179 102.147 16.8106 102.146C16.8057 102.146 16.7989 102.146 16.7899 102.147C16.7692 102.149 16.7421 102.151 16.708 102.155C16.6397 102.163 16.5516 102.175 16.4444 102.192C16.2304 102.224 15.9528 102.271 15.6291 102.327C15.2276 102.397 14.7626 102.481 14.2687 102.571C13.9651 102.626 13.6505 102.683 13.3331 102.739C12.5028 102.888 11.6561 103.036 10.9555 103.143C10.6054 103.196 10.2872 103.24 10.0234 103.268C9.93543 103.277 9.84938 103.286 9.76738 103.292C9.99828 103.485 10.3988 103.704 11.005 103.856C11.0075 103.856 11.0099 103.857 11.0123 103.857L12.8756 104.05C13.152 104.078 13.3579 104.318 13.3448 104.595C13.3317 104.873 13.104 105.092 12.8262 105.094C12.0943 105.101 11.4601 105.032 10.9198 104.912C10.7657 104.934 10.6319 104.954 10.5105 104.973C10.0748 105.038 9.79694 105.08 9.30288 105.091C9.33916 105.137 9.38845 105.189 9.4554 105.247C9.93279 105.663 11.1179 106.19 13.5257 106.19C13.815 106.19 14.0494 106.424 14.0494 106.714C14.0494 107.003 13.815 107.237 13.5257 107.237C11.0072 107.237 9.52086 106.693 8.76763 106.037C8.39929 105.716 8.15086 105.315 8.15433 104.901C8.15614 104.686 8.22967 104.462 8.40239 104.291C8.57547 104.119 8.80127 104.047 9.0199 104.047C9.02635 104.047 9.03277 104.047 9.03914 104.047C8.73945 103.781 8.48167 103.416 8.49686 103.016C8.50553 102.788 8.60812 102.562 8.81747 102.412C9.01115 102.274 9.23752 102.243 9.43265 102.256C9.50212 102.261 9.65761 102.254 9.91104 102.227C10.1533 102.201 10.4547 102.159 10.7979 102.107C11.4839 102.003 12.3189 101.857 13.1484 101.708C13.4612 101.652 13.7738 101.596 14.0767 101.541C14.5736 101.451 15.0447 101.366 15.4489 101.295C15.7746 101.238 16.0617 101.19 16.288 101.156C16.4977 101.124 16.6972 101.098 16.8202 101.098C16.9217 101.098 17.031 101.12 17.1119 101.138C17.205 101.159 17.3138 101.188 17.4327 101.223C17.6711 101.292 17.9729 101.389 18.3133 101.502C18.7067 101.633 19.1642 101.79 19.6475 101.957C19.9972 102.077 20.3605 102.201 20.7228 102.324C21.5933 102.62 22.4681 102.908 23.1876 103.113C23.5479 103.216 23.8609 103.296 24.1105 103.346C24.3174 103.387 24.4453 103.4 24.5108 103.402C24.5355 103.387 24.5707 103.364 24.6175 103.329C24.7363 103.241 24.8957 103.106 25.094 102.924C25.4888 102.562 26.0047 102.044 26.6028 101.413C27.7972 100.154 29.2961 98.4715 30.765 96.7577C32.2339 95.0439 33.6676 93.3045 34.7321 91.931C35.2652 91.2433 35.7007 90.6537 36.0009 90.2078C36.1517 89.9839 36.2622 89.8052 36.333 89.6734C36.3665 89.6111 36.3867 89.5673 36.3978 89.5396C36.4186 88.1941 37.1874 76.5501 37.3808 74.1698C37.4043 73.8815 37.657 73.6668 37.9452 73.6902ZM24.4776 103.42C24.4776 103.42 24.4792 103.419 24.4822 103.418C24.479 103.42 24.4775 103.42 24.4776 103.42ZM9.34456 103.301C9.34453 103.301 9.34525 103.301 9.34677 103.301C9.34534 103.301 9.34458 103.301 9.34456 103.301Z" fill="#1000B8"/>
<path fill-rule="evenodd" clip-rule="evenodd" d="M39.6645 99.5639C39.8698 99.7676 39.8712 100.099 39.6676 100.305C37.9499 102.037 36.2646 103.717 34.9349 105.013C34.2702 105.661 33.6924 106.216 33.2429 106.633C32.8086 107.037 32.4593 107.347 32.271 107.473L32.2706 107.473C31.5205 107.975 30.7303 108.096 30.082 108.182C30.0563 108.186 30.031 108.189 30.006 108.193C29.3574 108.279 28.9114 108.339 28.5527 108.577C28.3481 108.713 28.1065 108.929 27.8258 109.202C27.6966 109.327 27.5644 109.46 27.4276 109.597L27.4001 109.624C27.2546 109.77 27.1041 109.921 26.9529 110.067C26.6536 110.355 26.3332 110.644 26.0123 110.862C25.7023 111.073 25.3232 111.267 24.916 111.267C24.7408 111.267 24.4964 111.232 24.2319 111.185C23.956 111.137 23.6203 111.067 23.2449 110.984C22.4937 110.818 21.564 110.594 20.5993 110.359C20.4964 110.334 20.3932 110.309 20.2897 110.284C18.4384 109.833 16.526 109.368 15.4551 109.196C15.1367 109.146 14.8346 109.055 14.6145 108.884C14.4973 108.793 14.3874 108.666 14.3282 108.497C14.2675 108.324 14.2758 108.151 14.3233 108.001C14.4096 107.726 14.6244 107.519 14.8199 107.373C15.0309 107.216 15.298 107.073 15.5988 106.947C16.7934 106.446 18.7796 106.117 20.847 106.524C21.1307 106.58 21.3155 106.855 21.2596 107.139C21.2037 107.423 20.9283 107.608 20.6446 107.552C18.7848 107.185 17.0097 107.491 16.0034 107.913C15.8114 107.993 15.6573 108.074 15.5406 108.148C15.5656 108.153 15.5922 108.158 15.6205 108.162C16.7352 108.341 18.6836 108.815 20.5084 109.259C20.6218 109.287 20.7347 109.314 20.8468 109.341C21.8135 109.576 22.7323 109.798 23.4708 109.962C23.8402 110.043 24.1597 110.109 24.4147 110.154C24.6811 110.201 24.8432 110.22 24.916 110.22C25.0044 110.22 25.1676 110.17 25.4231 109.997C25.6678 109.83 25.9362 109.592 26.2257 109.313C26.3688 109.175 26.5128 109.031 26.6588 108.884L26.6876 108.856C26.8231 108.72 26.9606 108.582 27.0958 108.451C27.3807 108.174 27.6813 107.899 27.9725 107.705C28.5422 107.326 29.2243 107.238 29.7974 107.163C29.8469 107.157 29.8954 107.151 29.9431 107.144C30.5852 107.058 31.1577 106.957 31.6884 106.603C31.7926 106.533 32.0746 106.289 32.5299 105.866C32.9705 105.457 33.5415 104.909 34.2036 104.263C35.5275 102.973 37.2082 101.297 38.9239 99.5671C39.1275 99.3617 39.4591 99.3603 39.6645 99.5639Z" fill="#1000B8"/>
<path fill-rule="evenodd" clip-rule="evenodd" d="M48.3424 85.9272C48.6316 85.9272 48.8661 86.1617 48.8661 86.4509C48.8661 87.1608 48.7902 88.2261 48.6844 89.1712C48.6314 89.6454 48.5699 90.0974 48.505 90.4664C48.4726 90.6505 48.4384 90.8194 48.4027 90.9625C48.3693 91.0961 48.3267 91.2405 48.2692 91.3561C48.268 91.3586 48.2667 91.361 48.2654 91.3635C48.2307 91.4305 48.1797 91.4938 48.1569 91.522L48.1559 91.5233C48.1219 91.5654 48.0791 91.6157 48.0299 91.6718C47.9311 91.7846 47.7954 91.9341 47.6288 92.1141C47.295 92.4749 46.8283 92.9683 46.2653 93.5564C46.0653 93.7653 45.7338 93.7726 45.5248 93.5726C45.3159 93.3726 45.3087 93.041 45.5087 92.8321C46.0702 92.2456 46.5322 91.7572 46.86 91.4028C47.0242 91.2253 47.1525 91.0839 47.242 90.9817C47.2871 90.9303 47.3194 90.892 47.3407 90.8657C47.3408 90.8655 47.3409 90.8654 47.3411 90.8652C47.3434 90.8586 47.3462 90.8506 47.3494 90.8409C47.3602 90.8078 47.3727 90.764 47.3865 90.7087C47.4142 90.5979 47.4435 90.4552 47.4735 90.2849C47.5333 89.9448 47.592 89.5159 47.6436 89.0548C47.7471 88.1294 47.8187 87.1067 47.8187 86.4509C47.8187 86.1617 48.0532 85.9272 48.3424 85.9272ZM47.3592 90.8419C47.3592 90.8419 47.359 90.8421 47.3587 90.8425C47.359 90.8421 47.3592 90.8419 47.3592 90.8419Z" fill="#1000B8"/>
<path fill-rule="evenodd" clip-rule="evenodd" d="M100.044 71.3985C100.265 71.2122 100.595 71.2405 100.782 71.4617C103.078 74.188 105.338 76.889 107.051 78.938C107.269 79.1983 107.478 79.448 107.677 79.6859C108.261 80.3846 108.76 80.9815 109.147 81.4442C109.407 81.7543 109.616 82.0037 109.767 82.1829C109.843 82.2725 109.904 82.344 109.948 82.3965C109.971 82.4228 109.989 82.4438 110.002 82.4596C110.009 82.4675 110.015 82.4738 110.019 82.4785L110.024 82.4839C110.025 82.4852 110.025 82.4857 110.025 82.4855C110.025 82.4858 110.026 82.486 110.026 82.4863C110.026 82.4861 110.026 82.486 110.026 82.486C110.026 82.4853 110.056 82.5091 110.145 82.551C110.248 82.5998 110.387 82.6536 110.562 82.7137C110.768 82.7841 110.985 82.8516 111.22 82.9243C111.403 82.9811 111.597 83.0411 111.803 83.1082C112.246 83.2526 112.717 83.4212 113.099 83.6241C113.291 83.726 113.479 83.8463 113.635 83.9908C113.791 84.1344 113.941 84.3266 114.004 84.5742L114.005 84.5756C114.704 87.313 117.186 89.9574 120.107 91.6906C120.356 91.8382 120.438 92.1595 120.29 92.4082C120.142 92.6569 119.821 92.7389 119.572 92.5913C116.526 90.7838 113.786 87.948 112.991 84.8385C112.989 84.8347 112.976 84.8076 112.924 84.7596C112.858 84.6987 112.755 84.6273 112.608 84.5491C112.312 84.3918 111.915 84.2462 111.479 84.1041C111.308 84.0484 111.123 83.9909 110.939 83.9338C110.684 83.8547 110.432 83.7763 110.222 83.7043C110.034 83.6397 109.852 83.5712 109.697 83.4977C109.558 83.4319 109.378 83.3345 109.249 83.1889C109.125 83.0508 108.196 81.9399 106.807 80.279C105.04 78.1652 102.527 75.1606 99.9806 72.1364C99.7943 71.9152 99.8226 71.5848 100.044 71.3985Z" fill="#1000B8"/>
<path fill-rule="evenodd" clip-rule="evenodd" d="M78.2247 53.5604C78.3555 53.3024 78.6707 53.1994 78.9286 53.3302C79.6085 53.675 82.2046 55.0271 84.7774 56.4028C86.0641 57.0908 87.3476 57.7861 88.3844 58.3652C89.4029 58.934 90.2226 59.4121 90.5532 59.6585C90.6816 59.7529 90.8763 59.9484 91.095 60.179C91.3299 60.4267 91.6317 60.7578 91.9875 61.1567C92.6996 61.955 93.6373 63.0355 94.7079 64.2875C94.8958 64.5073 94.87 64.8379 94.6502 65.0259C94.4303 65.2138 94.0998 65.188 93.9118 64.9682C92.8433 63.7185 91.9109 62.6443 91.2058 61.8538C90.853 61.4583 90.5593 61.1362 90.335 60.8997C90.2227 60.7812 90.1302 60.6868 90.0578 60.6164C90.0217 60.5812 89.9924 60.5539 89.9695 60.5334C89.9582 60.5233 89.9492 60.5157 89.9426 60.5101C89.9362 60.5048 89.9332 60.5026 89.9332 60.5026L89.9285 60.4992C89.6676 60.3043 88.9184 59.8631 87.8736 59.2796C86.845 58.7051 85.568 58.0132 84.2835 57.3264C81.714 55.9525 79.1253 54.6043 78.4549 54.2643C78.197 54.1335 78.0939 53.8183 78.2247 53.5604Z" fill="#1000B8"/>
<path fill-rule="evenodd" clip-rule="evenodd" d="M108.47 92.4945C108.675 92.2909 109.007 92.2924 109.21 92.4978C111.305 94.6111 113.799 96.1903 115.956 96.7845C116.235 96.8613 116.398 97.1496 116.322 97.4285C116.245 97.7073 115.957 97.8711 115.678 97.7942C113.298 97.1385 110.65 95.4386 108.466 93.2351C108.263 93.0297 108.264 92.6981 108.47 92.4945Z" fill="#1000B8"/>
<path fill-rule="evenodd" clip-rule="evenodd" d="M73.4229 65.7397C73.5065 65.4628 73.7987 65.3061 74.0756 65.3897C74.3523 65.4732 74.7982 65.6032 75.3573 65.7662C76.5288 66.1076 78.1969 66.5938 79.8457 67.1009C81.0699 67.4773 82.298 67.8695 83.3311 68.2307C84.3496 68.5867 85.2211 68.9266 85.7028 69.2012C86.1733 69.4694 87.5707 70.4742 89.377 71.8403C91.1993 73.2185 93.474 74.9924 95.7209 76.8248C97.9664 78.656 100.191 80.551 101.909 82.1704C102.767 82.9795 103.507 83.7269 104.062 84.3677C104.34 84.6881 104.577 84.9884 104.761 85.2615C104.94 85.5275 105.088 85.7951 105.163 86.0481C105.515 87.2097 106.025 88.3173 106.68 89.3396C106.836 89.5832 106.765 89.9071 106.521 90.063C106.277 90.2189 105.953 90.1478 105.798 89.9042C105.091 88.8004 104.54 87.6044 104.16 86.3501L104.158 86.3456C104.128 86.2435 104.049 86.0791 103.892 85.8467C103.74 85.6204 103.532 85.3548 103.271 85.0534C102.749 84.4506 102.037 83.7306 101.191 82.9327C99.4987 81.3381 97.2964 79.4611 95.0589 77.6364C92.8228 75.8129 90.5583 74.0469 88.7452 72.6756C86.9159 71.2922 85.5816 70.3377 85.1841 70.1111C84.7978 69.891 84.015 69.5792 82.9855 69.2194C81.9706 68.8646 80.7569 68.4769 79.5379 68.102C77.8914 67.5957 76.2616 67.1207 75.0961 66.7811C74.5269 66.6152 74.0684 66.4816 73.7729 66.3924C73.496 66.3088 73.3393 66.0166 73.4229 65.7397Z" fill="#1000B8"/>
<path fill-rule="evenodd" clip-rule="evenodd" d="M112.816 90.7123C113.012 90.5003 113.344 90.488 113.556 90.6848C113.744 90.8592 114.129 91.1303 114.671 91.4651C115.202 91.7932 115.853 92.1638 116.545 92.5363C117.933 93.2832 119.465 94.0244 120.517 94.4392C120.786 94.5453 120.918 94.8495 120.812 95.1185C120.706 95.3876 120.402 95.5196 120.133 95.4135C119.028 94.9776 117.455 94.2153 116.049 93.4587C115.344 93.0794 114.675 92.6983 114.121 92.3562C113.578 92.0208 113.113 91.7033 112.843 91.4524C112.631 91.2556 112.619 90.9243 112.816 90.7123Z" fill="#1000B8"/>
<path fill-rule="evenodd" clip-rule="evenodd" d="M113.75 93.9662C113.912 93.7264 114.237 93.6632 114.477 93.825C115.612 94.5908 116.381 94.9304 118.533 95.7716C118.803 95.8769 118.936 96.1806 118.83 96.45C118.725 96.7194 118.421 96.8524 118.152 96.7471C115.991 95.9024 115.129 95.5283 113.891 94.6932C113.651 94.5314 113.588 94.2059 113.75 93.9662Z" fill="#1000B8"/>
<path fill-rule="evenodd" clip-rule="evenodd" d="M31.7516 27.0642C32.0396 27.0905 32.2519 27.3452 32.2256 27.6333C32.0801 29.2301 32.0164 30.8333 32.0348 32.4366L32.0349 32.4426C32.0349 37.7513 34.252 40.667 36.5236 43.1042C36.8076 43.409 37.0965 43.71 37.3841 44.0097C38.2376 44.899 39.0794 45.7762 39.7477 46.7021C40.6602 47.9663 41.2935 49.3734 41.2935 51.1527C41.2935 54.6733 41.8173 57.6537 42.5198 59.7376C42.872 60.7825 43.2617 61.58 43.637 62.1048C44.0378 62.6653 44.3226 62.7809 44.4346 62.7809C44.4815 62.7809 44.6296 62.7655 44.9075 62.72C45.1704 62.6769 45.5164 62.6126 45.9353 62.5288C46.7724 62.3614 47.8881 62.1185 49.1869 61.8179C51.7842 61.2166 55.1038 60.3867 58.3745 59.4729C61.6482 58.5582 64.8594 57.563 67.2461 56.6322C68.4426 56.1656 69.4104 55.7233 70.0712 55.3245C70.4032 55.1242 70.6348 54.9484 70.7771 54.802C70.8923 54.6835 70.9123 54.6227 70.9151 54.6151C70.9119 49.9893 68.5641 47.0748 65.4458 44.2291C65.2322 44.0341 65.217 43.7029 65.412 43.4892C65.6069 43.2756 65.9382 43.2605 66.1518 43.4554C69.3426 46.3673 71.9625 49.546 71.9625 54.6246C71.9625 54.9979 71.7485 55.3055 71.5279 55.5323C71.2965 55.7702 70.9796 55.9997 70.6123 56.2213C69.8747 56.6664 68.8413 57.1343 67.6267 57.608C65.1912 58.5578 61.9407 59.5639 58.6563 60.4816C55.3688 61.4002 52.0338 62.2339 49.4231 62.8383C48.1179 63.1404 46.9914 63.3857 46.1407 63.5559C45.7157 63.6409 45.3565 63.7077 45.0769 63.7535C44.8122 63.7969 44.5806 63.8282 44.4346 63.8282C43.7751 63.8282 43.2161 63.3169 42.785 62.714C42.3284 62.0755 41.8984 61.1732 41.5273 60.0722C40.7831 57.8645 40.2461 54.7689 40.2461 51.1527C40.2461 49.6529 39.722 48.456 38.8985 47.3151C38.2767 46.4537 37.5087 45.6532 36.6714 44.7806C36.3743 44.4709 36.0685 44.1521 35.7574 43.8184C33.4001 41.2892 30.9884 38.1296 30.9875 32.4456C30.9688 30.8076 31.0339 29.1696 31.1826 27.5382C31.2088 27.2502 31.4636 27.038 31.7516 27.0642Z" fill="#1000B8"/>
<path fill-rule="evenodd" clip-rule="evenodd" d="M40.5736 19.4641C39.6815 19.4551 38.7907 19.5366 37.9149 19.7071C37.631 19.7624 37.356 19.5771 37.3008 19.2932C37.2455 19.0093 37.4308 18.7343 37.7147 18.679C38.659 18.4952 39.6195 18.4073 40.5815 18.4167C45.4581 18.4178 49.0208 21.5703 51.4932 24.8968C53.3329 27.3721 54.6481 30.069 55.4481 31.7097C55.7153 32.2576 55.9251 32.6877 56.0777 32.9524L56.0782 32.9532C57.3464 35.1608 58.9482 36.9657 60.6537 38.595C60.8628 38.7948 60.8704 39.1263 60.6706 39.3354C60.4708 39.5445 60.1393 39.5521 59.9302 39.3523C58.183 37.6832 56.5057 35.8001 55.17 33.4749C54.9755 33.1376 54.7345 32.6433 54.4392 32.0378C53.6334 30.3854 52.4234 27.9042 50.6526 25.5216C48.2512 22.2906 44.9595 19.4641 40.5789 19.4641L40.5736 19.4641Z" fill="#1000B8"/>
<path d="M44.9708 58.0582C40.2508 56.9009 36.6921 69.7395 36.8907 75.0188C39.6915 78.105 45.9314 78.2593 47.4995 78.0587C49.0677 77.8581 44.9708 58.0582 44.9708 58.0582Z" fill="#0059CB"/>
<path fill-rule="evenodd" clip-rule="evenodd" d="M39.7441 58.9051C40.9009 57.3013 42.3935 56.1582 44.1315 56.5852C44.3276 56.6334 44.4785 56.79 44.5194 56.9877L44.0065 57.0938C44.5194 56.9877 44.5194 56.9878 44.5194 56.988L44.5312 57.0451C44.539 57.0828 44.5504 57.1387 44.5653 57.2114C44.595 57.357 44.6383 57.5703 44.6929 57.8417C44.8021 58.3846 44.9563 59.1601 45.1364 60.0912C45.4964 61.9531 45.9604 64.4392 46.3756 66.9328C46.7902 69.4233 47.1581 71.9336 47.3235 73.8393C47.4058 74.788 47.4402 75.6105 47.3994 76.2127C47.3793 76.5089 47.3389 76.7892 47.2581 77.0139C47.1893 77.205 47.014 77.561 46.6017 77.6137C45.7559 77.7219 43.7482 77.7295 41.5956 77.3214C39.454 76.9154 37.0551 76.0773 35.5387 74.4063C35.4531 74.312 35.4048 74.1897 35.4029 74.0624C35.3829 72.7625 35.4829 71.4634 35.7015 70.1819C35.7502 69.8967 36.0207 69.7051 36.3058 69.7537C36.5909 69.8023 36.7826 70.0729 36.734 70.358C36.5375 71.5098 36.4419 72.6763 36.4481 73.8445C37.7427 75.1703 39.7903 75.9131 41.7907 76.2923C43.6999 76.6543 45.4689 76.6673 46.2924 76.5937C46.317 76.4979 46.3402 76.3507 46.3544 76.1418C46.3896 75.6228 46.3612 74.8656 46.28 73.9298C46.1183 72.0666 45.756 69.5893 45.3424 67.1048C44.9293 64.6234 44.4671 62.147 44.108 60.2901C43.9285 59.3619 43.7749 58.589 43.6661 58.0482C43.6263 57.8501 43.5925 57.6831 43.5656 57.5512C42.5917 57.4742 41.5898 58.1366 40.5936 59.5178C39.5108 61.019 38.5721 63.1971 37.8603 65.5147C37.7754 65.7912 37.4824 65.9465 37.2059 65.8616C36.9294 65.7766 36.7741 65.4837 36.8591 65.2072C37.5862 62.8396 38.5658 60.5388 39.7441 58.9051ZM46.2544 76.701C46.2543 76.7006 46.2561 76.6967 46.2601 76.6905C46.2565 76.6983 46.2545 76.7014 46.2544 76.701Z" fill="#1000B8"/>
<path d="M49.6079 51.1875C63.0772 45.1539 81.114 68.2908 94.7222 91.3369C93.0055 95.077 70.511 108.311 63.0328 108.193C56.0445 100.287 30.73 59.6475 49.6079 51.1875Z" fill="#0059CB"/>
<path fill-rule="evenodd" clip-rule="evenodd" d="M45.1228 79.3337C45.3901 79.2233 45.6963 79.3506 45.8067 79.6179C49.4535 88.4509 54.6752 97.1295 58.4812 102.527C58.6479 102.764 58.5914 103.091 58.355 103.257C58.1186 103.424 57.7919 103.367 57.6252 103.131C53.7852 97.6848 48.5215 88.938 44.8386 80.0176C44.7282 79.7503 44.8555 79.4441 45.1228 79.3337Z" fill="#1000B8"/>
<path fill-rule="evenodd" clip-rule="evenodd" d="M91.7594 88.1173C92.0077 87.9688 92.3292 88.0497 92.4777 88.2979L93.4421 89.9105C93.5307 90.0586 93.5406 90.2408 93.4687 90.3976C93.2804 90.8081 92.92 91.2601 92.4636 91.7297C91.999 92.2078 91.4014 92.7377 90.7003 93.3029C89.2974 94.4338 87.4523 95.7286 85.3619 97.064C81.181 99.7348 75.9845 102.59 71.3108 104.645C71.046 104.761 70.737 104.641 70.6206 104.376C70.5042 104.112 70.6244 103.803 70.8892 103.686C75.5069 101.656 80.6559 98.8274 84.798 96.1813C86.8692 94.8583 88.68 93.5862 90.0429 92.4875C90.7247 91.9379 91.2874 91.4372 91.7125 90.9998C92.0252 90.678 92.247 90.4069 92.3883 90.1891L91.5788 88.8355C91.4303 88.5873 91.5112 88.2658 91.7594 88.1173Z" fill="#1000B8"/>
<path fill-rule="evenodd" clip-rule="evenodd" d="M67.2642 56.9722C60.3272 50.7955 53.7221 47.983 48.0863 50.508C44.459 52.1336 42.5444 54.9891 41.8454 58.6336C41.1408 62.3074 41.6757 66.7809 42.9954 71.5557C43.0724 71.8345 42.9089 72.1229 42.6301 72.2C42.3513 72.277 42.0629 72.1135 41.9858 71.8347C40.6475 66.9921 40.0685 62.3382 40.8168 58.4363C41.5707 54.5052 43.6759 51.3369 47.658 49.5522L47.658 49.5522C53.9175 46.7478 60.989 49.9823 67.9607 56.1899C74.9685 62.4297 82.0693 71.8379 88.4896 81.8614C88.6456 82.105 88.5746 82.4289 88.331 82.5849C88.0875 82.7409 87.7636 82.6699 87.6076 82.4263C81.2047 72.4301 74.165 63.1167 67.2642 56.9722Z" fill="#1000B8"/>
<path d="M57.2488 51.0159C60.0785 45.0055 75.2818 50.7787 79.8166 53.8243C80.1889 56.3608 76.4334 66.7478 74.2692 67.7624C71.1193 67.4904 53.7306 58.4922 57.2488 51.0159Z" fill="#0059CB"/>
<path d="M51.5739 39.6816C51.8535 41.4601 53.7728 49.8584 55.6939 52.2598C55.0535 53.6197 52.3743 56.3799 48.8734 55.4984C47.8936 53.1837 45.8721 48.4908 45.2433 47.6749C44.6145 46.859 51.5739 39.6816 51.5739 39.6816Z" fill="white"/>
<path fill-rule="evenodd" clip-rule="evenodd" d="M50.7654 38.2178C50.9546 38.2778 51.0937 38.4396 51.1245 38.6357C51.26 39.4973 51.804 42.0194 52.5549 44.6276C52.9298 45.9297 53.3534 47.243 53.7995 48.3748C54.2506 49.5191 54.7076 50.4323 55.1362 50.9681C55.2611 51.1242 55.2862 51.3377 55.2009 51.5185C54.6996 52.5821 53.1576 54.3183 50.9897 54.9715C50.7128 55.055 50.4207 54.8982 50.3372 54.6212C50.2538 54.3443 50.4106 54.0522 50.6875 53.9687C52.3539 53.4666 53.5931 52.1921 54.1087 51.3394C53.6539 50.6807 53.2224 49.7666 52.8251 48.7589C52.3624 47.5851 51.9285 46.2374 51.5484 44.9174C50.9863 42.9649 50.5358 41.0507 50.2813 39.8167C50.1684 39.9362 50.0445 40.0677 49.9117 40.2094C49.2714 40.8926 48.4254 41.8106 47.6 42.7528C46.7722 43.6977 45.9749 44.6559 45.4263 45.422C45.1498 45.8081 44.9511 46.1253 44.8413 46.357C44.8101 46.4228 44.7901 46.4734 44.7776 46.5103C44.9172 46.7165 45.0803 47.0109 45.2521 47.3434C45.468 47.7612 45.7176 48.2789 45.982 48.8471C46.5112 49.9843 47.1071 51.3398 47.6237 52.5362C47.7384 52.8017 47.6161 53.1099 47.3505 53.2246C47.085 53.3392 46.7768 53.2169 46.6621 52.9514C46.1468 51.7579 45.5555 50.413 45.0325 49.289C44.7708 48.7267 44.5281 48.2237 44.3216 47.8243C44.1085 47.4119 43.9524 47.1465 43.8632 47.0317L43.8618 47.03C43.6906 46.8078 43.7019 46.5519 43.7277 46.3989C43.7556 46.2333 43.8207 46.0647 43.8949 45.9081C44.0453 45.5911 44.2872 45.2137 44.5747 44.8122C45.1541 44.0032 45.9788 43.014 46.8122 42.0626C47.648 41.1085 48.5026 40.1812 49.1475 39.4931C49.4701 39.1489 49.7407 38.8641 49.9308 38.6652C50.0258 38.5658 50.1007 38.4878 50.152 38.4346C50.1776 38.408 50.1973 38.3875 50.2107 38.3737L50.2311 38.3526C50.2312 38.3525 50.2312 38.3525 50.6072 38.717L50.2311 38.3526C50.3693 38.2101 50.5762 38.1579 50.7654 38.2178ZM44.7593 46.5826C44.7592 46.5827 44.7593 46.5809 44.7599 46.577C44.7597 46.5806 44.7594 46.5825 44.7593 46.5826Z" fill="#1000B8"/>
<path d="M47.5699 48.5068C52.2178 46.7875 53.8753 39.6885 51.2719 32.6507C48.6686 25.6129 42.7902 21.3014 38.1423 23.0207C33.4944 24.74 31.837 31.8391 34.4404 38.8769C37.0437 45.9147 42.922 50.2261 47.5699 48.5068Z" fill="white"/>
<path fill-rule="evenodd" clip-rule="evenodd" d="M51.195 41.5821C51.4738 41.6593 51.6372 41.9478 51.56 42.2266C50.8013 44.9664 49.1871 47.1448 46.7892 48.0308C44.5755 48.851 42.1497 48.3991 39.9347 47.0749C39.6865 46.9265 39.6056 46.605 39.754 46.3567C39.9024 46.1085 40.2239 46.0275 40.4722 46.1759C42.4969 47.3864 44.5885 47.7292 46.4254 47.0487L46.4258 47.0485C48.414 46.3141 49.8511 44.4729 50.5506 41.947C50.6278 41.6683 50.9163 41.5049 51.195 41.5821Z" fill="#1000B8"/>
<path fill-rule="evenodd" clip-rule="evenodd" d="M39.0614 36.1891C39.3357 36.0977 39.6323 36.246 39.7238 36.5203C39.7928 36.7273 39.837 37.0352 39.8667 37.3559C39.8978 37.6914 39.9169 38.0886 39.9213 38.5004C39.9301 39.3122 39.8827 40.2335 39.7374 40.8671C39.6727 41.149 39.3918 41.3252 39.1099 41.2605C38.828 41.1959 38.6519 40.9149 38.7165 40.633C38.8335 40.1228 38.8826 39.3014 38.874 38.5117C38.8698 38.1228 38.8518 37.7546 38.8238 37.4525C38.7944 37.1357 38.7576 36.9339 38.7301 36.8515C38.6387 36.5772 38.787 36.2806 39.0614 36.1891Z" fill="#1000B8"/>
<path d="M36.7414 38.8673C36.9787 38.7981 37.0313 38.2628 36.8589 37.6717C36.6865 37.0806 36.3544 36.6575 36.1171 36.7268C35.8798 36.796 35.8273 37.3312 35.9997 37.9223C36.1721 38.5134 36.5042 38.9365 36.7414 38.8673Z" fill="#1B3C87"/>
<path d="M41.9309 36.2506C42.1681 36.1814 42.2207 35.6461 42.0483 35.055C41.8759 34.4639 41.5438 34.0409 41.3065 34.1101C41.0693 34.1793 41.0167 34.7145 41.1891 35.3056C41.3615 35.8967 41.6936 36.3198 41.9309 36.2506Z" fill="#1B3C87"/>
<path fill-rule="evenodd" clip-rule="evenodd" d="M44.2882 39.9972C44.5774 40.0034 44.8068 40.2428 44.8006 40.532C44.7857 41.2287 44.5372 41.9076 44.248 42.4401C43.9663 42.9588 43.6006 43.4207 43.2786 43.6392C43.0393 43.8015 42.7136 43.7391 42.5513 43.4997C42.3889 43.2603 42.4514 42.9347 42.6907 42.7723C42.8123 42.6899 43.0803 42.3957 43.3276 41.9403C43.5674 41.4987 43.7433 40.9856 43.7535 40.5096C43.7596 40.2204 43.9991 39.991 44.2882 39.9972Z" fill="#1000B8"/>
<path d="M37.8781 30.3207C39.0354 33.0211 45.9794 36.3002 53.1162 35.9144C53.1162 34.9499 50.8015 26.4629 49.0656 25.1127C47.3296 23.7625 39.4212 19.519 35.9492 22.991C32.4773 26.4629 37.8781 30.3207 37.8781 30.3207Z" fill="#FF50C0"/>
<path d="M38.4548 28.1993C38.4548 29.3566 35.3686 38.5728 33.92 40.0407C32.2824 36.8792 31.8966 28.0064 33.8255 25.8847C35.6772 23.8555 38.4548 28.1993 38.4548 28.1993Z" fill="#FE50BF"/>
<path fill-rule="evenodd" clip-rule="evenodd" d="M36.8705 29.3661C37.1135 29.2091 37.4376 29.2789 37.5945 29.5219C38.2291 30.5044 39.7241 31.6189 41.8251 32.5483C43.905 33.4684 46.5062 34.1744 49.2662 34.3896C49.5545 34.4121 49.7701 34.6641 49.7476 34.9524C49.7251 35.2408 49.4731 35.4563 49.1848 35.4338C46.3048 35.2092 43.588 34.4734 41.4013 33.5061C39.2356 32.5481 37.5152 31.3296 36.7147 30.0901C36.5578 29.8471 36.6275 29.523 36.8705 29.3661Z" fill="#1000B8"/>
<path fill-rule="evenodd" clip-rule="evenodd" d="M36.7244 30.2281C36.9994 30.3177 37.1497 30.6133 37.06 30.8883C36.313 33.1796 35.2422 36.0534 34.3287 37.853C34.1977 38.1109 33.8825 38.2138 33.6246 38.0829C33.3667 37.9519 33.2638 37.6367 33.3947 37.3788C34.2711 35.6525 35.3221 32.8399 36.0642 30.5637C36.1539 30.2887 36.4495 30.1384 36.7244 30.2281Z" fill="#1000B8"/>
<path d="M48.6799 37.8436C49.9582 37.8436 50.9945 36.8073 50.9945 35.529C50.9945 34.2507 49.9582 33.2144 48.6799 33.2144C47.4015 33.2144 46.3652 34.2507 46.3652 35.529C46.3652 36.8073 47.4015 37.8436 48.6799 37.8436Z" fill="white"/>
<path fill-rule="evenodd" clip-rule="evenodd" d="M48.0897 32.9874C47.8087 32.9571 47.5246 32.9937 47.2604 33.0942C46.9963 33.1947 46.7597 33.3562 46.57 33.5657C46.3759 33.78 46.0447 33.7964 45.8303 33.6022C45.616 33.408 45.5996 33.0769 45.7938 32.8625C46.0944 32.5306 46.4694 32.2745 46.8879 32.1153C47.3065 31.956 47.7568 31.898 48.2021 31.9461C48.6474 31.9942 49.0749 32.1469 49.4499 32.3919C49.8248 32.6369 50.1364 32.9671 50.3593 33.3555C50.5822 33.744 50.7099 34.1797 50.7322 34.627C50.7545 35.0743 50.6706 35.5205 50.4873 35.9292C50.3041 36.3378 50.0268 36.6973 49.6781 36.9783C49.3293 37.2593 48.919 37.4537 48.4807 37.5458C48.1977 37.6052 47.92 37.4239 47.8606 37.1409C47.8011 36.8578 47.9824 36.5802 48.2655 36.5207C48.542 36.4627 48.8009 36.34 49.021 36.1627C49.241 35.9854 49.416 35.7585 49.5316 35.5007C49.6472 35.2428 49.7002 34.9613 49.6861 34.679C49.6721 34.3968 49.5914 34.1219 49.4508 33.8768C49.3102 33.6316 49.1135 33.4233 48.877 33.2687C48.6404 33.1142 48.3706 33.0178 48.0897 32.9874Z" fill="#1000B8"/>
<path fill-rule="evenodd" clip-rule="evenodd" d="M72.1886 49.5294C72.2937 49.2599 72.5973 49.1266 72.8667 49.2317C75.3943 50.2175 77.6088 51.3294 78.9487 52.2327C79.0709 52.3151 79.1527 52.4451 79.1741 52.5909C79.2313 52.9808 79.2056 53.478 79.1322 54.0224C79.0577 54.5757 78.9286 55.213 78.7589 55.8981C78.4193 57.2687 77.9102 58.8571 77.3226 60.3937C76.7354 61.9291 76.0642 63.4271 75.3971 64.6126C75.0638 65.2049 74.7254 65.7301 74.3923 66.1461C74.0684 66.5507 73.7119 66.9005 73.3308 67.0791C73.2472 67.1184 73.1546 67.1347 73.0626 67.1266C72.4007 67.0683 71.3007 66.6995 70.0093 66.1471C69.7434 66.0334 69.62 65.7256 69.7337 65.4597C69.8475 65.1937 70.1553 65.0704 70.4212 65.1841C71.592 65.6849 72.4881 65.98 73.0017 66.0636C73.1515 65.9616 73.3448 65.7787 73.5747 65.4915C73.8598 65.1354 74.167 64.6628 74.4843 64.099C75.1183 62.9723 75.7686 61.5248 76.3443 60.0196C76.9195 58.5156 77.4147 56.9683 77.7423 55.6462C77.9061 54.985 78.0263 54.3868 78.0943 53.8825C78.1452 53.5047 78.1642 53.1978 78.1563 52.9648C76.8828 52.1426 74.8416 51.1262 72.4862 50.2075C72.2167 50.1024 72.0835 49.7988 72.1886 49.5294Z" fill="#1000B8"/>
<path fill-rule="evenodd" clip-rule="evenodd" d="M60.0551 47.882C58.351 48.1501 57.1444 48.8513 56.5634 50.0818C55.6494 52.0256 56.2977 54.1496 57.954 56.2985C59.6041 58.4393 62.1682 60.4793 64.7796 62.1479C65.0233 62.3036 65.0947 62.6275 64.9389 62.8712C64.7832 63.1149 64.4594 63.1862 64.2157 63.0305C61.5593 61.3332 58.8807 59.2165 57.1244 56.9378C55.3744 54.6673 54.4526 52.109 55.6158 49.6358L55.6161 49.6351L55.6161 49.6351C56.4008 47.9726 57.9987 47.1453 59.8923 46.8473C61.7813 46.5501 64.0481 46.7614 66.3455 47.2457C66.6285 47.3054 66.8096 47.5831 66.7499 47.8661C66.6902 48.1491 66.4125 48.3302 66.1295 48.2706C63.8882 47.7981 61.764 47.6131 60.0551 47.882Z" fill="#1000B8"/>
</svg>
