<svg width="45" height="45" viewBox="0 0 45 45" fill="none" xmlns="http://www.w3.org/2000/svg">
<path d="M42.6294 21.3064C42.3492 18.4793 41.381 15.3563 39.9032 12.5128C38.0603 8.96643 35.5104 5.95969 32.5293 3.81771C29.0038 1.28443 24.9973 0 20.6214 0C17.8184 0 15.1271 0.614795 12.6222 1.82733C12.1853 2.0388 12.0025 2.56447 12.214 3.00138C12.4256 3.43819 12.9511 3.62092 13.388 3.40954C15.6523 2.31354 18.086 1.75781 20.6214 1.75781C31.1919 1.75781 36.5363 9.84595 38.3435 13.3234C41.0921 18.6126 41.7759 24.579 39.9339 27.2018C39.2634 28.1568 37.9348 28.0522 35.7529 26.8728C35.7444 26.8683 35.7357 26.8637 35.727 26.8594C34.3874 26.1918 33.0153 26.3522 32.146 27.2776C31.1946 28.2907 31.0997 29.9109 31.9098 31.3096C32.3897 32.1381 32.9462 33.9009 33.1077 35.9716C33.2793 38.1711 32.9571 40.0787 32.2004 41.3432C31.4026 42.6766 30.1504 43.2966 28.3748 43.2385C22.8605 43.0583 16.6917 40.0631 11.8731 35.2262C6.89724 30.2316 4.04343 24.0544 4.04343 18.2784C4.04343 14.5433 5.26344 11.0197 7.57162 8.08866C7.87195 7.7073 7.8062 7.15474 7.42493 6.85441C7.04358 6.55409 6.49101 6.61983 6.19069 7.0011C3.63606 10.2451 2.28571 14.1448 2.28571 18.2784C2.28571 24.5159 5.32628 31.1453 10.6278 36.4668C13.098 38.9463 15.9775 41.0328 18.9549 42.5007C22.1094 44.0561 25.2594 44.8953 28.3174 44.9953C28.4094 44.9982 28.5004 44.9997 28.5908 44.9997C30.8626 44.9997 32.6285 44.0512 33.7089 42.2457C34.9164 40.2277 35.0015 37.6456 34.8603 35.8348C34.6993 33.7717 34.1383 31.6496 33.4309 30.4284C32.9506 29.5992 33.0923 28.8376 33.4273 28.481C33.7568 28.1302 34.2904 28.1109 34.9307 28.4266C35.7039 28.8439 36.7259 29.3439 37.7995 29.5315C39.7476 29.872 40.8177 29.0019 41.3724 28.212C42.4697 26.6498 42.916 24.1973 42.6294 21.3064Z" fill="#494949"/>
<path d="M18.8998 3.74463C16.719 3.74463 14.9448 5.51888 14.9448 7.69971C14.9448 9.88054 16.719 11.6548 18.8998 11.6548C21.0807 11.6548 22.8549 9.88054 22.8549 7.69971C22.8549 5.51888 21.0807 3.74463 18.8998 3.74463ZM18.8998 9.89697C17.6883 9.89697 16.7026 8.91128 16.7026 7.69971C16.7026 6.48814 17.6883 5.50244 18.8998 5.50244C20.1114 5.50244 21.0971 6.48814 21.0971 7.69971C21.0971 8.91128 20.1115 9.89697 18.8998 9.89697Z" fill="#494949"/>
<path d="M10.7869 18.2022C12.9677 18.2022 14.7419 16.4279 14.7419 14.2471C14.7419 12.0662 12.9677 10.292 10.7869 10.292C8.60603 10.292 6.83179 12.0662 6.83179 14.2471C6.83179 16.4279 8.60603 18.2022 10.7869 18.2022ZM10.7869 12.0498C11.9984 12.0498 12.9841 13.0355 12.9841 14.2471C12.9841 15.4586 11.9984 16.4443 10.7869 16.4443C9.57529 16.4443 8.5896 15.4586 8.5896 14.2471C8.5896 13.0355 9.57529 12.0498 10.7869 12.0498Z" fill="#494949"/>
<path d="M11.38 20.3774C9.19918 20.3774 7.42493 22.1517 7.42493 24.3325C7.42493 26.5133 9.19918 28.2876 11.38 28.2876C13.5608 28.2876 15.3351 26.5133 15.3351 24.3325C15.3351 22.1517 13.5608 20.3774 11.38 20.3774ZM11.38 26.5298C10.1684 26.5298 9.18274 25.5441 9.18274 24.3325C9.18274 23.1209 10.1684 22.1353 11.38 22.1353C12.5916 22.1353 13.5773 23.1209 13.5773 24.3325C13.5773 25.5441 12.5917 26.5298 11.38 26.5298Z" fill="#494949"/>
<path d="M13.5554 32.6382C13.5554 34.819 15.3296 36.5933 17.5104 36.5933C19.6913 36.5933 21.4655 34.819 21.4655 32.6382C21.4655 30.4574 19.6913 28.6831 17.5104 28.6831C15.3296 28.6831 13.5554 30.4574 13.5554 32.6382ZM19.7076 32.6382C19.7076 33.8498 18.7219 34.8355 17.5104 34.8355C16.2988 34.8355 15.3131 33.8498 15.3131 32.6382C15.3131 31.4266 16.2988 30.4409 17.5104 30.4409C18.722 30.4409 19.7076 31.4266 19.7076 32.6382Z" fill="#494949"/>
<path d="M26.4094 41.1416C28.5902 41.1416 30.3644 39.3674 30.3644 37.1865C30.3644 35.0057 28.5902 33.2314 26.4094 33.2314C24.2285 33.2314 22.4543 35.0057 22.4543 37.1865C22.4543 39.3674 24.2285 41.1416 26.4094 41.1416ZM26.4094 34.9893C27.6209 34.9893 28.6066 35.975 28.6066 37.1865C28.6066 38.3981 27.6209 39.3838 26.4094 39.3838C25.1978 39.3838 24.2121 38.3981 24.2121 37.1865C24.2121 35.975 25.1978 34.9893 26.4094 34.9893Z" fill="#494949"/>
<path d="M34.7696 24.1145C35.0632 24.1145 35.3588 24.0769 35.6515 23.9985C36.7045 23.7163 37.5532 22.9658 38.0413 21.8853C38.5022 20.865 38.584 19.6615 38.2719 18.4965C37.9598 17.3316 37.2871 16.3303 36.3778 15.6771C35.4148 14.9853 34.3045 14.7597 33.2517 15.0419C31.1451 15.6063 29.9697 18.0744 30.6313 20.5438C31.2009 22.6701 32.9497 24.1146 34.7696 24.1145ZM33.7065 16.7397C33.8484 16.7017 33.9939 16.683 34.1408 16.683C34.5472 16.683 34.9652 16.8267 35.3521 17.1046C35.9325 17.5216 36.3665 18.1775 36.5738 18.9514C36.7812 19.7253 36.7334 20.5103 36.4392 21.1616C36.1722 21.7528 35.7308 22.1572 35.1964 22.3004C34.0264 22.6137 32.7399 21.6218 32.329 20.0887C31.9184 18.5557 32.5362 17.0533 33.7065 16.7397Z" fill="#494949"/>
<path d="M9.66323 5.61279C10.1486 5.61279 10.5421 5.21931 10.5421 4.73389C10.5421 4.24847 10.1486 3.85498 9.66323 3.85498H9.66261C9.17719 3.85498 8.78406 4.24847 8.78406 4.73389C8.78406 5.21931 9.17781 5.61279 9.66323 5.61279Z" fill="#494949"/>
</svg>
