<svg width="45" height="45" viewBox="0 0 45 45" fill="none" xmlns="http://www.w3.org/2000/svg">
<g clip-path="url(#clip0)">
<path d="M30.2333 5.57788C24.1982 5.57788 19.2881 10.4879 19.2881 16.5231C19.2881 22.5584 24.1982 27.4684 30.2333 27.4684C36.2686 27.4684 41.1786 22.5584 41.1786 16.5231C41.1786 10.4879 36.2686 5.57788 30.2333 5.57788ZM30.2333 25.7105C25.1674 25.7105 21.0461 21.5891 21.0461 16.5231C21.0461 11.4572 25.1674 7.33582 30.2333 7.33582C35.2993 7.33582 39.4207 11.4572 39.4207 16.5231C39.4207 21.5891 35.2993 25.7105 30.2333 25.7105Z" fill="white"/>
<path d="M30.2333 1.75635C22.0909 1.75635 15.4667 8.3806 15.4667 16.523C15.4667 18.6493 15.9192 20.6716 16.7318 22.5H2.6369C1.18292 22.5 0 23.6829 0 25.1369V27.9496C0 28.6245 0.255077 29.2406 0.673641 29.7075C0.255077 30.1744 0 30.7906 0 31.4655V34.2782C0 34.953 0.255077 35.5692 0.673641 36.0361C0.255077 36.503 0 37.1192 0 37.794V40.6067C0 42.0607 1.18292 43.2436 2.6369 43.2436H23.7321C25.1861 43.2436 26.369 42.0607 26.369 40.6067V37.794C26.369 37.1192 26.114 36.503 25.6954 36.0361C26.1139 35.5692 26.369 34.953 26.369 34.2782V31.4655C26.369 31.217 26.3337 30.9767 26.2692 30.7486C27.5312 31.1007 28.8606 31.2897 30.2333 31.2897C32.6805 31.2897 35.1049 30.6784 37.2448 29.5221C37.6718 29.2913 37.8309 28.758 37.6001 28.3309C37.3692 27.9039 36.8361 27.7447 36.4089 27.9755C34.5251 28.9936 32.3895 29.5317 30.2333 29.5317C23.0603 29.5317 17.2246 23.696 17.2246 16.523C17.2246 9.35002 23.0603 3.51428 30.2333 3.51428C37.4063 3.51428 43.2421 9.35002 43.2421 16.523C43.2421 18.7234 42.6829 20.8975 41.6249 22.8102C41.3898 23.235 41.5437 23.7697 41.9684 24.0048C42.3931 24.2397 42.9281 24.0859 43.163 23.6611C44.3649 21.4886 45 19.0203 45 16.523C45 8.3806 38.3757 1.75635 30.2333 1.75635ZM24.6111 31.4655V34.2782C24.6111 34.7628 24.2168 35.1571 23.7321 35.1571H2.6369C2.15224 35.1571 1.75794 34.7628 1.75794 34.2782V31.4655C1.75794 30.9808 2.15224 30.5865 2.6369 30.5865H23.7321C24.2168 30.5865 24.6111 30.9808 24.6111 31.4655ZM24.6111 40.6067C24.6111 41.0914 24.2168 41.4857 23.7321 41.4857H2.6369C2.15224 41.4857 1.75794 41.0914 1.75794 40.6067V37.794C1.75794 37.3094 2.15224 36.9151 2.6369 36.9151H23.7321C24.2168 36.9151 24.6111 37.3094 24.6111 37.794V40.6067ZM22.0804 28.8286H2.6369C2.15224 28.8286 1.75794 28.4343 1.75794 27.9496V25.1369C1.75794 24.6522 2.15224 24.2579 2.6369 24.2579H17.6598C18.786 26.0819 20.2976 27.6434 22.0804 28.8286Z" fill="white"/>
<path d="M30.2334 12.8392C31.1499 12.8392 31.8954 13.4793 31.8954 14.2663C31.8954 14.7517 32.289 15.1452 32.7744 15.1452C33.2597 15.1452 33.6533 14.7517 33.6533 14.2663C33.6533 12.793 32.5735 11.5506 31.1123 11.1884V10.7073C31.1123 10.2219 30.7187 9.82837 30.2334 9.82837C29.748 9.82837 29.3544 10.2219 29.3544 10.7073V11.1884C27.8933 11.5506 26.8135 12.793 26.8135 14.2663C26.8135 16.0225 28.3476 17.4513 30.2334 17.4513C31.1499 17.4513 31.8954 18.0915 31.8954 18.8784C31.8954 19.6653 31.1499 20.3055 30.2334 20.3055C29.317 20.3055 28.5714 19.6653 28.5714 18.8784C28.5714 18.3929 28.1778 17.9994 27.6924 17.9994C27.2071 17.9994 26.8135 18.3929 26.8135 18.8784C26.8135 20.3516 27.8933 21.594 29.3544 21.9563V22.232C29.3544 22.7175 29.748 23.111 30.2334 23.111C30.7187 23.111 31.1123 22.7175 31.1123 22.232V21.9563C32.5735 21.594 33.6533 20.3516 33.6533 18.8784C33.6533 17.1222 32.1192 15.6934 30.2334 15.6934C29.317 15.6934 28.5714 15.0532 28.5714 14.2663C28.5714 13.4793 29.317 12.8392 30.2334 12.8392Z" fill="white"/>
<path d="M39.9948 25.5017C39.7636 25.5017 39.5369 25.5949 39.3735 25.7584C39.21 25.9219 39.1158 26.1486 39.1158 26.3807C39.1158 26.6119 39.2099 26.8386 39.3735 27.0021C39.5369 27.1656 39.7636 27.2597 39.9948 27.2597C40.226 27.2597 40.4528 27.1656 40.6162 27.0021C40.7797 26.8377 40.8738 26.6119 40.8738 26.3807C40.8738 26.1486 40.7798 25.9227 40.6162 25.7584C40.4527 25.5949 40.2259 25.5017 39.9948 25.5017Z" fill="white"/>
</g>
<defs>
<clipPath id="clip0">
<rect width="45" height="45" fill="white"/>
</clipPath>
</defs>
</svg>
