<svg width="45" height="45" viewBox="0 0 45 45" fill="none" xmlns="http://www.w3.org/2000/svg">
<g clip-path="url(#clip0)">
<path d="M16.6535 4.78338C16.6535 5.27262 16.257 5.66921 15.7677 5.66921C15.2785 5.66921 14.8819 5.27262 14.8819 4.78338C14.8819 4.29414 15.2785 3.89756 15.7677 3.89756C16.257 3.89756 16.6535 4.29414 16.6535 4.78338ZM20.6398 4.78338C20.6398 5.27262 20.2432 5.66921 19.7539 5.66921C19.2647 5.66921 18.8681 5.27262 18.8681 4.78338C18.8681 4.29414 19.2647 3.89756 19.7539 3.89756C20.2432 3.89756 20.6398 4.29414 20.6398 4.78338ZM24.626 4.78338C24.626 5.27262 24.2294 5.66921 23.7402 5.66921C23.2509 5.66921 22.8543 5.27262 22.8543 4.78338C22.8543 4.29414 23.2509 3.89756 23.7402 3.89756C24.2294 3.89756 24.626 4.29414 24.626 4.78338ZM45 29.5865C45 30.0758 44.6034 30.4724 44.1142 30.4724H42.1654C41.6763 30.4724 41.2795 30.0746 41.2795 29.5865C41.2795 29.0984 41.6763 28.7007 42.1654 28.7007H43.2283V9.21252H13.1102V25.1574H30.4724C31.9402 25.1574 33.1299 26.3472 33.1299 27.8149V28.7007H34.1929C34.7013 28.7007 35.1118 29.1323 35.0766 29.648C35.0446 30.118 34.6323 30.4724 34.1612 30.4724H33.1299V41.9881C33.1299 43.4558 31.9402 44.6456 30.4724 44.6456H2.65748C1.18975 44.6456 0 43.4558 0 41.9881V27.8149C0 26.3472 1.18975 25.1574 2.65748 25.1574H11.3386V3.01173C11.3386 1.544 12.5283 0.354248 13.9961 0.354248H42.3425C43.8102 0.354248 45 1.544 45 3.01173V29.5865ZM30.4724 26.9291H2.65748C2.16904 26.9291 1.77165 27.3264 1.77165 27.8149V41.9881C1.77165 42.4766 2.16904 42.8739 2.65748 42.8739H30.4724C30.9609 42.8739 31.3583 42.4766 31.3583 41.9881V27.8149C31.3583 27.3264 30.9609 26.9291 30.4724 26.9291ZM13.1102 7.44086H43.2283V3.01173C43.2283 2.52328 42.831 2.1259 42.3425 2.1259H13.9961C13.5076 2.1259 13.1102 2.52328 13.1102 3.01173V7.44086ZM28.5793 14.6431L26.113 20.8439C25.9322 21.2984 26.1542 21.8135 26.6087 21.9943C26.7162 22.037 26.8269 22.0573 26.9359 22.0573C27.2881 22.0573 27.6211 21.8457 27.7592 21.4985L30.2256 15.2977C30.4064 14.8432 30.1844 14.3281 29.7299 14.1473C29.2752 13.9666 28.7601 14.1884 28.5793 14.6431ZM33.7053 14.8103C33.4527 14.3914 32.9083 14.2563 32.4893 14.5091C32.0704 14.7617 31.9355 15.3061 32.188 15.7251L33.574 18.0237L32.1802 20.4298C31.935 20.8532 32.0794 21.3951 32.5028 21.6404C32.6425 21.7214 32.7953 21.7599 32.9459 21.7599C33.2516 21.7599 33.5491 21.6014 33.7133 21.318L35.3695 18.4589C35.5313 18.1794 35.5283 17.834 35.3616 17.5574L33.7053 14.8103ZM23.8492 14.5091C23.4303 14.2564 22.8858 14.3914 22.6332 14.8103L20.977 17.5574C20.8103 17.8339 20.8073 18.1793 20.9691 18.4588L22.6253 21.3179C22.7895 21.6014 23.0869 21.7598 23.3926 21.7598C23.5432 21.7598 23.696 21.7213 23.8358 21.6403C24.2591 21.395 24.4035 20.8531 24.1584 20.4297L22.7646 18.0237L24.1506 15.725C24.403 15.3061 24.2682 14.7617 23.8492 14.5091ZM4.42913 30.4724H5.31496C5.80411 30.4724 6.20079 30.0757 6.20079 29.5865C6.20079 29.0974 5.80411 28.7007 5.31496 28.7007H4.42913C3.93998 28.7007 3.54331 29.0974 3.54331 29.5865C3.54331 30.0757 3.93998 30.4724 4.42913 30.4724ZM9.12402 30.4724H10.0098C10.499 30.4724 10.8957 30.0757 10.8957 29.5865C10.8957 29.0974 10.499 28.7007 10.0098 28.7007H9.12402C8.63486 28.7007 8.23819 29.0974 8.23819 29.5865C8.23819 30.0757 8.63486 30.4724 9.12402 30.4724ZM13.8189 30.4724H14.7047C15.1939 30.4724 15.5906 30.0757 15.5906 29.5865C15.5906 29.0974 15.1939 28.7007 14.7047 28.7007H13.8189C13.3297 28.7007 12.9331 29.0974 12.9331 29.5865C12.9331 30.0757 13.3297 30.4724 13.8189 30.4724ZM18.4252 30.4724H19.311C19.8002 30.4724 20.1969 30.0757 20.1969 29.5865C20.1969 29.0974 19.8002 28.7007 19.311 28.7007H18.4252C17.936 28.7007 17.5394 29.0974 17.5394 29.5865C17.5394 30.0757 17.936 30.4724 18.4252 30.4724ZM23.1201 30.4724H24.0059C24.4951 30.4724 24.8917 30.0757 24.8917 29.5865C24.8917 29.0974 24.4951 28.7007 24.0059 28.7007H23.1201C22.6309 28.7007 22.2343 29.0974 22.2343 29.5865C22.2343 30.0757 22.6309 30.4724 23.1201 30.4724ZM27.815 30.4724H28.7008C29.1899 30.4724 29.5866 30.0757 29.5866 29.5865C29.5866 29.0974 29.1899 28.7007 28.7008 28.7007H27.815C27.3258 28.7007 26.9291 29.0974 26.9291 29.5865C26.9291 30.0757 27.3258 30.4724 27.815 30.4724ZM28.7008 32.244H24.7146C24.2254 32.244 23.8287 32.6407 23.8287 33.1298C23.8287 33.619 24.2254 34.0157 24.7146 34.0157H28.7008C29.1899 34.0157 29.5866 33.619 29.5866 33.1298C29.5866 32.6407 29.1899 32.244 28.7008 32.244ZM4.42913 34.0157H7.26378C7.75293 34.0157 8.14961 33.619 8.14961 33.1298C8.14961 32.6407 7.75293 32.244 7.26378 32.244H4.42913C3.93998 32.244 3.54331 32.6407 3.54331 33.1298C3.54331 33.619 3.93998 34.0157 4.42913 34.0157ZM10.8957 32.244C10.4065 32.244 10.0098 32.6407 10.0098 33.1298C10.0098 33.619 10.4065 34.0157 10.8957 34.0157H11.7815C12.2706 34.0157 12.6673 33.619 12.6673 33.1298C12.6673 32.6407 12.2706 32.244 11.7815 32.244H10.8957ZM14.6161 33.1298C14.6161 33.619 15.0128 34.0157 15.502 34.0157H16.3878C16.8769 34.0157 17.2736 33.619 17.2736 33.1298C17.2736 32.6407 16.8769 32.244 16.3878 32.244H15.502C15.0128 32.244 14.6161 32.6407 14.6161 33.1298ZM19.2224 33.1298C19.2224 33.619 19.6191 34.0157 20.1083 34.0157H20.9941C21.4832 34.0157 21.8799 33.619 21.8799 33.1298C21.8799 32.6407 21.4832 32.244 20.9941 32.244H20.1083C19.6191 32.244 19.2224 32.6407 19.2224 33.1298ZM4.42913 37.559H8.41535C8.90451 37.559 9.30118 37.1623 9.30118 36.6731C9.30118 36.184 8.90451 35.7873 8.41535 35.7873H4.42913C3.93998 35.7873 3.54331 36.184 3.54331 36.6731C3.54331 37.1623 3.93998 37.559 4.42913 37.559ZM28.7008 35.7873H25.8661C25.377 35.7873 24.9803 36.184 24.9803 36.6731C24.9803 37.1623 25.377 37.559 25.8661 37.559H28.7008C29.1899 37.559 29.5866 37.1623 29.5866 36.6731C29.5866 36.184 29.1899 35.7873 28.7008 35.7873ZM20.4626 36.6731C20.4626 37.1623 20.8593 37.559 21.3484 37.559H22.2343C22.7234 37.559 23.1201 37.1623 23.1201 36.6731C23.1201 36.184 22.7234 35.7873 22.2343 35.7873H21.3484C20.8593 35.7873 20.4626 36.184 20.4626 36.6731ZM17.628 37.559C18.1171 37.559 18.5138 37.1623 18.5138 36.6731C18.5138 36.184 18.1171 35.7873 17.628 35.7873H16.7421C16.253 35.7873 15.8563 36.184 15.8563 36.6731C15.8563 37.1623 16.253 37.559 16.7421 37.559H17.628ZM13.0217 37.559C13.5108 37.559 13.9075 37.1623 13.9075 36.6731C13.9075 36.184 13.5108 35.7873 13.0217 35.7873H12.1358C11.6467 35.7873 11.25 36.184 11.25 36.6731C11.25 37.1623 11.6467 37.559 12.1358 37.559H13.0217ZM19.5768 39.3306H8.94685C8.4577 39.3306 8.06102 39.7273 8.06102 40.2165C8.06102 40.7056 8.4577 41.1023 8.94685 41.1023H19.5768C20.0659 41.1023 20.4626 40.7056 20.4626 40.2165C20.4626 39.7273 20.0659 39.3306 19.5768 39.3306ZM28.7008 39.3306H27.815C27.3258 39.3306 26.9291 39.7273 26.9291 40.2165C26.9291 40.7056 27.3258 41.1023 27.815 41.1023H28.7008C29.1899 41.1023 29.5866 40.7056 29.5866 40.2165C29.5866 39.7273 29.1899 39.3306 28.7008 39.3306ZM24.0945 39.3306H23.2087C22.7195 39.3306 22.3228 39.7273 22.3228 40.2165C22.3228 40.7056 22.7195 41.1023 23.2087 41.1023H24.0945C24.5836 41.1023 24.9803 40.7056 24.9803 40.2165C24.9803 39.7273 24.5836 39.3306 24.0945 39.3306ZM5.31496 39.3306H4.42913C3.93998 39.3306 3.54331 39.7273 3.54331 40.2165C3.54331 40.7056 3.93998 41.1023 4.42913 41.1023H5.31496C5.80411 41.1023 6.20079 40.7056 6.20079 40.2165C6.20079 39.7273 5.80411 39.3306 5.31496 39.3306ZM38.1791 28.7007C37.6901 28.7007 37.2933 29.0984 37.2933 29.5865C37.2933 30.0746 37.6901 30.4724 38.1791 30.4724C38.6672 30.4724 39.065 30.0746 39.065 29.5865C39.065 29.0984 38.6672 28.7007 38.1791 28.7007Z" fill="#494949"/>
</g>
<defs>
<clipPath id="clip0">
<rect width="45" height="45" fill="white"/>
</clipPath>
</defs>
</svg>
