<svg width="45" height="45" viewBox="0 0 45 45" fill="none" xmlns="http://www.w3.org/2000/svg">
<g clip-path="url(#clip0)">
<path d="M42.124 17.5544C42.6094 17.5544 43.0029 17.1609 43.0029 16.6755C43.0029 16.1901 42.6094 15.7966 42.124 15.7966C41.6386 15.7966 41.2451 16.1901 41.2451 16.6755C41.2451 17.1609 41.6386 17.5544 42.124 17.5544Z" fill="#494949"/>
<path d="M44.4129 9.04043C44.0367 8.15098 43.498 7.35205 42.8115 6.6665C42.126 5.98008 41.327 5.44131 40.4376 5.06514C39.5165 4.67578 38.5383 4.47803 37.5293 4.47803C36.5203 4.47803 35.5421 4.67578 34.621 5.06514C33.7315 5.44131 32.9326 5.98008 32.2471 6.6665C31.5606 7.35205 31.0219 8.15098 30.6457 9.04043C30.2563 9.96152 30.0586 10.9406 30.0586 11.9487C30.0586 12.9577 30.2563 13.9359 30.6457 14.857C30.7001 14.9856 30.7589 15.1117 30.82 15.2365L29.3752 16.131C27.9723 14.2262 25.8562 12.8777 23.4242 12.4831L23.5752 8.72156C25.4115 8.38055 26.8066 6.76758 26.8066 4.83398C26.8066 2.65315 25.0324 0.878906 22.8516 0.878906C20.6707 0.878906 18.8965 2.65315 18.8965 4.83398C18.8965 6.65754 20.1373 8.19589 21.8187 8.65134L21.6695 12.3675C19.6388 12.4264 17.7706 13.1445 16.2716 14.3148L13.6695 11.65C14.4663 10.6128 14.9414 9.31623 14.9414 7.91016C14.9414 4.51775 12.1815 1.75781 8.78906 1.75781C5.39666 1.75781 2.63672 4.51775 2.63672 7.91016C2.63672 11.3026 5.39666 14.0625 8.78906 14.0625C10.1428 14.0625 11.3949 13.6221 12.412 12.8783L14.9944 15.5229C14.0289 16.6265 13.3218 17.9614 12.9678 19.4324L10.5318 19.0884C10.3629 17.0619 8.66092 15.4644 6.59171 15.4644C4.41088 15.4644 2.63663 17.2386 2.63663 19.4194C2.63663 21.6003 4.41088 23.3745 6.59171 23.3745C8.27613 23.3745 9.7171 22.3157 10.2863 20.8289L12.7221 21.173C12.7158 21.3119 12.7121 21.4514 12.7121 21.5917C12.7121 23.9234 13.5818 26.0555 15.0132 27.6818L11.2812 31.4931C10.0999 30.5939 8.62717 30.0586 7.03125 30.0586C3.15422 30.0586 0 33.2128 0 37.0898C0 40.9669 3.15422 44.1211 7.03125 44.1211C10.9083 44.1211 14.0625 40.9669 14.0625 37.0898C14.0625 35.4409 13.4905 33.924 12.5365 32.7237L16.2942 28.886C17.856 30.0978 19.8155 30.8203 21.9407 30.8203C23.4113 30.8203 24.8024 30.474 26.0375 29.8594L29.2249 35.2387C28.2108 36.1255 27.5683 37.4273 27.5683 38.877C27.5683 41.5425 29.7368 43.711 32.4023 43.711C35.0677 43.711 37.2363 41.5425 37.2363 38.877C37.2363 36.2116 35.0677 34.043 32.4023 34.043C31.8167 34.043 31.2551 34.1479 30.7353 34.3395L27.53 28.9299C28.6953 28.0402 29.6433 26.8799 30.2792 25.5434L34.9382 27.2602C34.9081 27.4563 34.8926 27.6571 34.8926 27.8614C34.8926 30.0422 36.6668 31.8165 38.8477 31.8165C41.0285 31.8165 42.8027 30.0422 42.8027 27.8614C42.8027 25.6806 41.0285 23.9063 38.8477 23.9063C37.4959 23.9063 36.3008 24.5884 35.5872 25.626L30.8792 23.891C31.0685 23.1558 31.1692 22.3853 31.1692 21.5918C31.1692 20.1782 30.8493 18.8379 30.2787 17.6392L31.7748 16.7128C31.9235 16.8919 32.0808 17.0649 32.2471 17.231C32.9326 17.9174 33.7315 18.4562 34.621 18.8323C35.5421 19.2217 36.5203 19.4194 37.5293 19.4194C37.9564 19.4194 38.3845 19.3834 38.802 19.3113C39.034 19.2718 39.2353 19.1443 39.3715 18.9527C39.5068 18.7603 39.5596 18.5273 39.52 18.2962C39.4471 17.8734 39.0832 17.5658 38.6543 17.5658C38.6042 17.5658 38.5541 17.5702 38.5049 17.579C38.185 17.6335 37.8563 17.6616 37.5293 17.6616C36.0044 17.6616 34.57 17.0666 33.4898 15.9882C32.4114 14.908 31.8164 13.4736 31.8164 11.9487C31.8164 10.4238 32.4114 8.98945 33.4898 7.90928C34.57 6.83086 36.0044 6.23584 37.5293 6.23584C39.0542 6.23584 40.4886 6.83086 41.5687 7.90928C42.6472 8.98945 43.2422 10.4238 43.2422 11.9487C43.2422 12.3311 43.2044 12.7134 43.1297 13.0843C43.0339 13.5598 43.3424 14.0238 43.817 14.1196C43.875 14.1311 43.9339 14.1372 43.9919 14.1372C44.4085 14.1372 44.7706 13.8401 44.8523 13.4314C44.9508 12.9463 45 12.4479 45 11.9487C45 10.9406 44.8022 9.96152 44.4129 9.04043ZM6.5918 21.6168C5.38022 21.6168 4.39453 20.6311 4.39453 19.4195C4.39453 18.2079 5.38022 17.2223 6.5918 17.2223C7.80337 17.2223 8.78906 18.2079 8.78906 19.4195C8.78906 20.6311 7.80337 21.6168 6.5918 21.6168ZM35.4785 38.8769C35.4785 40.5731 34.0986 41.9531 32.4024 41.9531C30.7062 41.9531 29.3262 40.5731 29.3262 38.8769C29.3262 37.1807 30.7062 35.8008 32.4024 35.8008C34.0986 35.8008 35.4785 37.1808 35.4785 38.8769ZM38.8477 25.6641C40.0592 25.6641 41.0449 26.6498 41.0449 27.8613C41.0449 29.0729 40.0592 30.0586 38.8477 30.0586C37.6361 30.0586 36.6504 29.0729 36.6504 27.8613C36.6504 26.6498 37.6361 25.6641 38.8477 25.6641ZM20.6543 4.83398C20.6543 3.62241 21.64 2.63672 22.8516 2.63672C24.0631 2.63672 25.0488 3.62241 25.0488 4.83398C25.0488 6.04556 24.0631 7.03125 22.8516 7.03125C21.64 7.03125 20.6543 6.04556 20.6543 4.83398ZM4.39453 7.91016C4.39453 5.48701 6.36592 3.51562 8.78906 3.51562C11.2122 3.51562 13.1836 5.48701 13.1836 7.91016C13.1836 10.3333 11.2122 12.3047 8.78906 12.3047C6.36592 12.3047 4.39453 10.3333 4.39453 7.91016ZM7.03125 42.3633C4.12348 42.3633 1.75781 39.9976 1.75781 37.0898C1.75781 34.1821 4.12348 31.8164 7.03125 31.8164C9.93902 31.8164 12.3047 34.1821 12.3047 37.0898C12.3047 39.9976 9.93902 42.3633 7.03125 42.3633ZM21.9407 29.0625C17.8213 29.0625 14.47 25.7112 14.47 21.5918C14.47 17.4725 17.8213 14.1211 21.9407 14.1211C26.06 14.1211 29.4114 17.4725 29.4114 21.5918C29.4114 25.7112 26.06 29.0625 21.9407 29.0625Z" fill="#494949"/>
</g>
<defs>
<clipPath id="clip0">
<rect width="45" height="45" fill="white"/>
</clipPath>
</defs>
</svg>
