<svg width="45" height="45" viewBox="0 0 45 45" fill="none" xmlns="http://www.w3.org/2000/svg">
<g clip-path="url(#clip0)">
<path d="M41.0764 6.12225C38.7255 3.90037 35.4974 2.67676 31.9867 2.67676C26.615 2.67676 23.8316 5.33387 22.4873 7.37223C21.1466 5.33369 18.3691 2.67676 13.0041 2.67676C9.49377 2.67676 6.26695 3.90046 3.91834 6.1226C1.35492 8.54776 0 11.9613 0 15.9942C0 17.4842 0.135879 18.8329 0.415459 20.1174C0.415635 20.1184 0.415898 20.1193 0.416074 20.1202C0.730459 21.5659 1.23398 22.9571 1.95548 24.3727C1.95574 24.3733 1.95601 24.3738 1.95627 24.3743C2.16044 24.7749 2.38588 25.1838 2.62608 25.5894C6.68153 32.4414 20.0436 41.089 21.5536 42.0523C21.8368 42.2331 22.1614 42.3235 22.4862 42.3235C22.8094 42.3235 23.1326 42.2339 23.4146 42.0547C24.9249 41.0972 38.2883 32.5001 42.3778 25.5906C42.5174 25.3556 42.656 25.1108 42.8013 24.8424C42.8015 24.8421 42.8018 24.8416 42.8019 24.8413C43.5724 23.4193 44.1203 22.0289 44.477 20.5906C44.4771 20.5898 44.4773 20.589 44.4775 20.5883C44.8291 19.1663 45 17.6636 45 15.9943C45 11.9618 43.6432 8.54812 41.0764 6.12225ZM22.486 40.5621C21.7368 40.0833 8.24836 31.406 4.23519 24.8541H11.3831C12.4258 24.8541 13.3926 24.2892 13.9066 23.3788L14.9075 21.6019L17.1246 31.0007C17.4189 32.2483 18.5171 33.1655 19.794 33.2311C19.8444 33.2337 19.8947 33.235 19.9451 33.235C21.1767 33.235 22.2761 32.452 22.6807 31.2867L24.2237 26.8449L24.4884 27.287C25.0519 28.2268 26.0824 28.7638 27.1744 28.6881C28.2676 28.6124 29.2126 27.9371 29.6407 26.9254L30.8979 23.9517L31.0649 24.1692C31.6094 24.879 32.4683 25.3027 33.3621 25.3027H40.4827C36.1251 31.8438 23.2221 40.0946 22.486 40.5621ZM42.9196 19.5002H34.7888L32.4636 16.4711C31.8384 15.6565 30.818 15.2314 29.7982 15.3615C28.78 15.493 27.8993 16.1622 27.4995 17.108L26.5269 19.4079L26.0071 18.5402C25.4312 17.5789 24.3401 17.0315 23.2249 17.146C22.1102 17.2617 21.1529 18.021 20.7864 19.0793L20.4767 19.9707L18.8445 13.0498C18.5678 11.8792 17.6208 11.0136 16.433 10.845C15.2428 10.6751 14.0919 11.2425 13.5038 12.2873L9.64538 19.0582H9.19626C8.71084 19.0582 8.31735 19.4517 8.31735 19.9371C8.31735 20.4225 8.71084 20.816 9.19626 20.816H10.1561C10.4719 20.816 10.7634 20.6466 10.9197 20.3722L15.0333 13.1536C15.2652 12.7416 15.7167 12.5186 16.185 12.5852C16.6522 12.6516 17.0248 12.9927 17.1338 13.4537L19.4593 23.3156C19.5491 23.696 19.8792 23.9715 20.2696 23.9916C20.6602 24.0106 21.0167 23.7715 21.145 23.4023L22.4471 19.6555C22.5914 19.2387 22.9679 18.94 23.4054 18.8946C23.8434 18.85 24.2724 19.0651 24.4991 19.4436L25.9081 21.796C26.0783 22.0798 26.3948 22.2446 26.7234 22.2211C27.0535 22.198 27.3428 21.9914 27.4716 21.6866L29.1184 17.7925C29.2758 17.4201 29.6226 17.1566 30.022 17.105C30.4225 17.0537 30.8234 17.2211 31.0692 17.5414L33.6582 20.9142C33.8245 21.131 34.0821 21.258 34.3554 21.258H42.4558C42.2037 22.0212 41.8862 22.7784 41.4972 23.5449H33.3619C33.0108 23.5449 32.6733 23.3783 32.4591 23.0989L31.3729 21.6842C31.1825 21.436 30.8743 21.3077 30.5641 21.3476C30.2539 21.3874 29.988 21.5891 29.8663 21.8772L28.0216 26.2407C27.8531 26.6389 27.4819 26.9048 27.053 26.9345C26.6239 26.9641 26.2177 26.753 25.9963 26.3836L24.7651 24.3272C24.5897 24.0343 24.2603 23.8689 23.921 23.9044C23.5814 23.9393 23.2928 24.1678 23.1807 24.4902L21.0202 30.71C20.8608 31.1689 20.4288 31.4772 19.9451 31.4772C19.9257 31.4772 19.9063 31.4768 19.8856 31.4756C19.3832 31.4499 18.9514 31.0886 18.8355 30.5971L16.1017 19.008C16.0185 18.6556 15.7279 18.3903 15.3694 18.3396C15.011 18.2889 14.6581 18.4631 14.4804 18.7785L12.3754 22.5154C12.173 22.8739 11.7928 23.0964 11.383 23.0964H3.28649C2.75845 21.9809 2.37973 20.8793 2.13302 19.744C2.13293 19.7437 2.13293 19.7435 2.13284 19.7432C1.88051 18.583 1.75781 17.3568 1.75781 15.9942C1.75781 8.05197 7.5876 4.43457 13.0041 4.43457C18.1975 4.43457 20.5034 7.29849 21.4157 9.00559C21.6265 9.40013 22.0366 9.64543 22.4859 9.64569H22.4867C22.9357 9.64569 23.3459 9.40083 23.5571 9.00664C24.4726 7.2991 26.7853 4.43448 31.9867 4.43448C37.4077 4.43457 43.2422 8.05197 43.2422 15.9942C43.2422 17.2583 43.1364 18.4122 42.9196 19.5002Z" fill="#494949"/>
<path d="M6.0504 19.6013C5.90845 19.2551 5.54889 19.0341 5.17598 19.0611C4.81158 19.0874 4.49465 19.345 4.3941 19.6961C4.29311 20.0482 4.42847 20.4388 4.72756 20.6513C5.02392 20.8619 5.42391 20.8678 5.72696 20.6675C6.07184 20.4395 6.20904 19.9822 6.0504 19.6013Z" fill="#494949"/>
</g>
<defs>
<clipPath id="clip0">
<rect width="45" height="45" fill="white"/>
</clipPath>
</defs>
</svg>
