<svg width="45" height="45" viewBox="0 0 45 45" fill="none" xmlns="http://www.w3.org/2000/svg">
<path d="M25.388 11.7754C26.019 11.7754 26.4373 11.1297 26.2001 10.5608C26.0428 10.1767 25.6285 9.95228 25.2167 10.0352C24.7941 10.1209 24.5091 10.4882 24.5091 10.8966C24.5091 11.3667 24.8893 11.7754 25.388 11.7754Z" fill="#494949"/>
<path d="M22.5 25.3362C26.8925 25.3362 30.466 21.7628 30.466 17.3703C30.466 15.5747 29.8511 13.8136 28.7347 12.4115C28.4324 12.0317 27.8793 11.9688 27.4997 12.2713C27.1199 12.5736 27.0571 13.1266 27.3595 13.5063C28.2418 14.6145 28.7082 15.9506 28.7082 17.3703C28.7082 20.7934 25.9232 23.5784 22.5 23.5784C19.0768 23.5784 16.2919 20.7934 16.2919 17.3703C16.2919 14.0707 18.8701 11.3477 22.1614 11.1712C22.3431 11.1614 22.5091 11.0971 22.6441 10.9949C23.3317 10.4747 22.9315 9.37055 22.0672 9.41591C17.843 9.64249 14.5341 13.1364 14.5341 17.3703C14.534 21.7627 18.1076 25.3362 22.5 25.3362Z" fill="#494949"/>
<path d="M41.0208 6.12158H35.7398C35.4705 5.72581 35.3025 5.62781 34.1929 4.49789C33.0064 3.31154 31.0757 3.31154 29.8891 4.49789L28.5457 5.84139C27.8505 5.47603 27.125 5.17509 26.3768 4.94191V3.04321C26.3769 1.36521 25.0118 0 23.3337 0H21.6662C19.9882 0 18.623 1.36521 18.623 3.04321V4.942C17.875 5.17518 17.1493 5.4762 16.4542 5.84156L15.1107 4.49798C13.9242 3.31146 11.9936 3.31146 10.8069 4.49798C9.71587 5.60909 9.52989 5.7252 9.26015 6.12167H3.97916C1.83832 6.12167 0.0965881 7.86331 0.0965881 10.0042V30.6083C0.0965881 32.743 1.83216 34.4908 3.97907 34.4908H19.2081L18.0556 38.6281H15.4143C13.8266 38.6281 12.535 39.9197 12.535 41.5075V43.2422H9.30867C8.82325 43.2422 8.42976 43.6358 8.42976 44.1211C8.42976 44.6064 8.82325 45 9.30867 45H35.6913C36.1767 45 36.5702 44.6064 36.5702 44.1211C36.5702 43.6358 36.1767 43.2422 35.6913 43.2422H32.465V41.5074C32.465 39.9197 31.1734 38.628 29.5857 38.628H26.9443L25.7919 34.4907H41.0209C43.1618 34.4907 44.9035 32.7491 44.9035 30.6082C44.9035 29.5152 44.9035 10.7292 44.9035 10.0042C44.9034 7.86331 43.1618 6.12158 41.0208 6.12158ZM41.0208 7.87939C42.1924 7.87939 43.1456 8.83257 43.1456 10.0042V26.7548H36.2537C36.2146 26.0151 35.9102 25.2976 35.3722 24.7595L34.0287 23.4161C34.3941 22.7209 34.6951 21.9953 34.9283 21.2472C36.8488 21.2424 36.8698 21.2588 37.1377 21.2315C38.6704 21.0754 39.8703 19.7772 39.8703 18.204V16.5364C39.8703 14.8583 38.5051 13.4932 36.827 13.4932H34.9283C34.6951 12.7451 34.3941 12.0196 34.0287 11.3244L35.3722 9.98095C35.955 9.39814 36.2527 8.63499 36.2644 7.87939H41.0208ZM10.8707 6.92016L12.0499 5.74093C12.5511 5.23978 13.3666 5.23978 13.8677 5.74093L15.6814 7.55464C15.9657 7.8387 16.4066 7.8939 16.7523 7.68841C17.6794 7.13681 18.6773 6.72293 19.7184 6.4582C20.1081 6.35924 20.3809 6.00847 20.3809 5.60646V3.04321C20.3809 2.33446 20.9575 1.75781 21.6663 1.75781H23.3338C24.0426 1.75781 24.6192 2.33446 24.6192 3.04321V5.60646C24.6192 6.00847 24.892 6.35924 25.2816 6.4582C26.3228 6.72284 27.3207 7.13681 28.2478 7.68841C28.5932 7.89398 29.0342 7.83888 29.3187 7.55464L31.1323 5.74093C31.6334 5.23995 32.4489 5.23978 32.9502 5.74093C34.1357 6.96586 34.3784 7.02668 34.4841 7.59621C34.5618 8.02248 34.4228 8.44427 34.1293 8.73791L32.3157 10.5515C32.0314 10.8359 31.9763 11.2769 32.1819 11.6226C32.6646 12.4337 33.0419 13.2991 33.3059 14.2003C33.3436 14.3291 33.379 14.4585 33.4121 14.5887C33.5111 14.9783 33.8619 15.251 34.2639 15.251H36.8271C37.5359 15.251 38.1125 15.8277 38.1125 16.5364V18.204C38.1125 18.9127 37.5359 19.4894 36.8271 19.4894H34.2639C33.8619 19.4894 33.5111 19.7622 33.4121 20.1518C33.1475 21.193 32.7335 22.1909 32.1819 23.118C32.1691 23.1396 32.1572 23.1616 32.1464 23.1838C31.9841 23.518 32.0491 23.9222 32.3158 24.1889C33.9279 25.9054 34.4105 26.03 34.4965 26.7548H10.5036C10.5368 26.4756 10.6622 26.2109 10.8707 26.0024L12.6843 24.1888C12.9686 23.9045 13.0237 23.4635 12.8181 23.1179C12.2664 22.1906 11.8525 21.1927 11.588 20.1517C11.4891 19.762 11.1382 19.4893 10.7362 19.4893H8.17295C7.46419 19.4893 6.88754 18.9127 6.88754 18.2039V16.5364C6.88754 15.8276 7.46419 15.251 8.17295 15.251H10.7363C11.1383 15.251 11.4891 14.9781 11.5881 14.5885C11.8527 13.5473 12.2665 12.5495 12.8182 11.6225C13.023 11.2783 12.97 10.8371 12.6844 10.5514C10.9063 8.75206 10.8475 8.75329 10.701 8.52759C10.3743 8.02503 10.4394 7.35135 10.8707 6.92016ZM3.97916 7.87939H8.73562C8.74757 8.64439 9.05238 9.40553 9.6278 9.98095L10.9713 11.3244C10.6059 12.0196 10.3049 12.7453 10.0717 13.4932H8.17295C6.49494 13.4932 5.12973 14.8583 5.12973 16.5364V18.204C5.12973 19.8838 6.49661 21.2472 8.17295 21.2472H10.0717C10.3049 21.9952 10.6058 22.7209 10.9713 23.4161L9.6278 24.7595C9.08973 25.2976 8.78537 26.0151 8.74626 26.7548H1.8544V10.0042C1.8544 8.83257 2.80757 7.87939 3.97916 7.87939ZM30.7072 41.5074V43.2422H14.2928V41.5074C14.2928 40.889 14.7959 40.3858 15.4143 40.3858H29.5857C30.2041 40.3858 30.7072 40.889 30.7072 41.5074ZM25.1196 38.628H19.8803L21.0327 34.4907H23.9671L25.1196 38.628ZM43.1456 30.6082C43.1456 31.7798 42.1924 32.7329 41.0208 32.7329C39.709 32.7329 5.20303 32.7329 3.97907 32.7329C2.80406 32.7329 1.85431 31.7765 1.85431 30.6082V28.5126H43.1455V30.6082H43.1456Z" fill="#494949"/>
</svg>
