<svg width="45" height="45" viewBox="0 0 45 45" fill="none" xmlns="http://www.w3.org/2000/svg">
<path d="M29.0007 35.6275C29.4354 35.9945 29.885 36.3738 30.3619 36.7872C30.5271 36.9304 30.7323 37.002 30.9376 37.002C31.1429 37.002 31.348 36.9304 31.5133 36.7872C31.9922 36.3721 32.4433 35.9913 32.8796 35.623C35.1018 33.7473 37.0898 32.1713 37.0898 29.8451C37.0898 27.7471 35.5456 26.1035 33.5742 26.1035C32.3196 26.1035 31.4786 26.737 30.9375 27.4153C30.3965 26.737 29.5554 26.1035 28.3008 26.1035C26.3294 26.1035 24.7852 27.747 24.7852 29.845C24.7852 32.0693 26.5534 33.5618 29.0007 35.6275ZM28.3008 27.8613C29.601 27.8613 30.0723 29.4396 30.0905 29.5022C30.196 29.8829 30.5418 30.1488 30.9369 30.1488C31.332 30.1488 31.6778 29.8875 31.7833 29.5067C31.8027 29.4396 32.274 27.8613 33.5742 27.8613C34.716 27.8613 35.332 28.8834 35.332 29.845C35.332 31.4301 33.3611 32.9161 31.7457 34.2797C31.4828 34.5016 31.2146 34.728 30.9374 34.9642C30.6621 34.7295 30.3957 34.5046 30.1344 34.2842C27.8948 32.3938 26.543 31.2528 26.543 29.8451C26.543 28.8834 27.1591 27.8613 28.3008 27.8613Z" fill="#494949"/>
<path d="M14.0625 5.27344C9.17077 5.27344 5.27344 9.24899 5.27344 14.0625C5.27344 18.9089 9.21621 22.8516 14.0625 22.8516C18.8996 22.8516 22.8516 18.9374 22.8516 14.0625C22.8516 9.20118 18.9106 5.27344 14.0625 5.27344ZM9.71227 8.53919C9.88646 8.54429 10.0591 8.54763 10.2276 8.54982C10.6965 8.5558 11.4751 8.56582 11.6632 8.69994C11.7547 8.96915 11.3603 9.41774 10.8752 9.93243C10.3286 10.5126 9.70884 11.1701 9.84445 12.0053C9.99369 12.9295 10.7478 13.3058 11.1984 13.5306C11.3273 13.5949 11.5385 13.7004 11.5995 13.7631C11.5829 14.0637 11.1753 14.867 10.6338 15.7088C9.84173 14.8484 8.53031 13.5631 7.14551 12.7959C7.45137 11.119 8.36253 9.60346 9.71227 8.53919ZM14.0625 21.0938C10.4454 21.0938 7.45866 18.3481 7.07414 14.8318C8.63314 15.9579 10.0078 17.6654 10.0249 17.6868C10.3839 18.1368 11.0714 18.1259 11.4159 17.665C12.0906 16.7655 13.5267 14.6547 13.3374 13.4822C13.1875 12.5588 12.4336 12.1826 11.9832 11.9578C11.874 11.9033 11.7058 11.8194 11.62 11.7569C11.7255 11.5932 11.9776 11.3256 12.1544 11.138C12.8242 10.4273 13.8364 9.35314 13.2816 8.01264C13.1226 7.6297 12.8745 7.36893 12.5717 7.19007C13.057 7.08574 13.5557 7.03125 14.0625 7.03125C16.306 7.03125 18.396 8.12232 19.7046 9.87117C18.2554 9.63738 16.7037 9.74619 15.9516 10.9637C14.9762 12.5414 16.1923 13.8492 17.0827 14.8232C17.684 15.481 18.3059 16.1612 18.4805 16.9009C18.5687 17.2746 18.6722 17.9996 18.6898 19.3572C17.4084 20.4797 15.7793 21.0938 14.0625 21.0938ZM20.3254 17.2637C20.2888 16.9769 20.2443 16.7217 20.1914 16.4972C19.9117 15.3126 19.098 14.4225 18.3801 13.6372C17.4029 12.5683 17.2284 12.2412 17.447 11.8876C17.7576 11.3849 19.0939 11.4099 20.7633 11.9297C20.9819 12.6158 21.0938 13.3312 21.0938 14.0625C21.0938 15.1968 20.8267 16.286 20.3254 17.2637Z" fill="#494949"/>
<path d="M21.5332 41.0449C22.0186 41.0449 22.4121 40.6514 22.4121 40.166C22.4121 39.6806 22.0186 39.2871 21.5332 39.2871C21.0478 39.2871 20.6543 39.6806 20.6543 40.166C20.6543 40.6514 21.0478 41.0449 21.5332 41.0449Z" fill="#494949"/>
<path d="M30.9374 16.875C29.8618 16.875 28.8001 16.9963 27.7646 17.2353C28.0036 16.1998 28.1249 15.1381 28.1249 14.0625C28.1249 6.30843 21.8166 0 14.0625 0C6.30834 0 0 6.30843 0 14.0625C0 16.6844 0.728085 19.2317 2.1099 21.4589L0.0559862 26.9375C-0.064951 27.2603 0.0137988 27.624 0.257431 27.8676C0.502382 28.1125 0.866512 28.1895 1.18749 28.069L6.66605 26.0151C8.89311 27.3969 11.4405 28.1249 14.0625 28.1249C15.1384 28.1249 16.2001 28.0036 17.235 27.7646C16.9963 28.7986 16.875 29.8603 16.875 30.9374C16.875 33.1717 17.4123 35.3958 18.429 37.3692C18.6506 37.7993 19.1802 37.971 19.6128 37.748C20.0443 37.5257 20.2138 36.9956 19.9916 36.5641C19.09 34.8139 18.6328 32.9209 18.6328 30.9374C18.6328 29.637 18.8337 28.3632 19.2291 27.1444C22.8603 25.7119 25.7124 22.86 27.1451 19.2287C28.3666 18.8336 29.6403 18.6328 30.9374 18.6328C37.7222 18.6328 43.2421 24.1526 43.2421 30.9374C43.2421 33.3632 42.5293 35.7164 41.1806 37.7427C41.0242 37.9779 40.9902 38.2738 41.0893 38.5383L42.6194 42.6195L38.5382 41.0895C38.2739 40.9903 37.9778 41.0244 37.7427 41.1807C35.7165 42.5293 33.3633 43.2421 30.9374 43.2421C28.9015 43.2421 26.8848 42.7348 25.1055 41.7749C24.6783 41.5448 24.1451 41.704 23.9146 42.1313C23.6842 42.5585 23.8437 43.0917 24.2709 43.3222C26.306 44.4198 28.6112 44.9999 30.9374 44.9999C33.5595 44.9999 36.1068 44.2718 38.334 42.89L43.8125 44.9439C44.133 45.0642 44.4974 44.9876 44.7426 44.7425C44.9862 44.4989 45.065 44.1352 44.944 43.8124L42.89 38.3339C44.2718 36.1069 44.9999 33.5594 44.9999 30.9374C44.9999 23.1834 38.6916 16.875 30.9374 16.875ZM14.0625 26.3671C11.6367 26.3671 9.28343 25.6543 7.25711 24.3057C7.02157 24.149 6.72547 24.1154 6.46162 24.2144L2.38042 25.7444L3.91051 21.6632C4.00965 21.3988 3.97564 21.1028 3.81919 20.8677C2.47069 18.8414 1.75781 16.4882 1.75781 14.0625C1.75781 7.27768 7.27768 1.75781 14.0625 1.75781C20.8473 1.75781 26.3671 7.27768 26.3671 14.0625C26.3671 20.8444 20.8806 26.3671 14.0625 26.3671Z" fill="#494949"/>
</svg>
