<svg width="45" height="45" viewBox="0 0 45 45" fill="none" xmlns="http://www.w3.org/2000/svg">
<path d="M22.5 45C22.9854 45 23.3789 44.6065 23.3789 44.1211C23.3789 43.6357 22.9854 43.2422 22.5 43.2422C22.0146 43.2422 21.6211 43.6357 21.6211 44.1211C21.6211 44.6065 22.0146 45 22.5 45Z" fill="#494949"/>
<path d="M44.1211 0C43.6358 0 43.2422 0.393574 43.2422 0.878906V5.53711H39.1992V5.09766C39.1992 3.15914 37.6221 1.58203 35.6836 1.58203C33.7451 1.58203 32.168 3.15914 32.168 5.09766V5.53711H28.6523V5.09766C28.6523 3.15914 27.0752 1.58203 25.1367 1.58203C23.1982 1.58203 21.6211 3.15914 21.6211 5.09766V5.53711H1.75781V0.878906C1.75781 0.393574 1.36424 0 0.878906 0C0.393574 0 0 0.393574 0 0.878906V44.1211C0 44.6064 0.393574 45 0.878906 45H18.5449C19.0303 45 19.4238 44.6064 19.4238 44.1211C19.4238 43.6358 19.0303 43.2422 18.5449 43.2422H1.75781V39.7266H43.2422V43.2422H26.4551C25.9697 43.2422 25.5762 43.6358 25.5762 44.1211C25.5762 44.6064 25.9697 45 26.4551 45H44.1211C44.6064 45 45 44.6064 45 44.1211V0.878906C45 0.393574 44.6064 0 44.1211 0ZM23.3789 26.7188C23.3789 25.7495 24.1675 24.9609 25.1367 24.9609C26.106 24.9609 26.8945 25.7495 26.8945 26.7188V29.3555C26.8945 30.3247 26.106 31.1133 25.1367 31.1133C24.1675 31.1133 23.3789 30.3247 23.3789 29.3555V26.7188ZM28.6523 26.7188C28.6523 25.7495 29.4409 24.9609 30.4102 24.9609C31.3794 24.9609 32.168 25.7495 32.168 26.7188V29.3555C32.168 30.3247 31.3794 31.1133 30.4102 31.1133C29.4409 31.1133 28.6523 30.3247 28.6523 29.3555V26.7188ZM33.9258 26.7188C33.9258 25.7495 34.7143 24.9609 35.6836 24.9609C36.6529 24.9609 37.4414 25.7495 37.4414 26.7188V29.3555C37.4414 30.3247 36.6529 31.1133 35.6836 31.1133C34.7143 31.1133 33.9258 30.3247 33.9258 29.3555V26.7188ZM35.6836 23.2031C34.6344 23.2031 33.6916 23.6658 33.0469 24.3971C32.4022 23.6658 31.4594 23.2031 30.4102 23.2031C29.3609 23.2031 28.4181 23.6658 27.7734 24.3971C27.1288 23.6658 26.186 23.2031 25.1367 23.2031C23.1982 23.2031 21.6211 24.7802 21.6211 26.7188V27.1582H1.75781V18.1055H5.80078V18.5449C5.80078 20.4834 7.37789 22.0605 9.31641 22.0605C10.3656 22.0605 11.3084 21.5979 11.9531 20.8666C12.5978 21.5979 13.5406 22.0605 14.5898 22.0605C16.5284 22.0605 18.1055 20.4834 18.1055 18.5449V18.1055H43.2422V27.1582H39.1992V26.7188C39.1992 24.7802 37.6221 23.2031 35.6836 23.2031ZM16.3477 18.5449C16.3477 19.5142 15.5591 20.3027 14.5898 20.3027C13.6206 20.3027 12.832 19.5142 12.832 18.5449V15.9082C12.832 14.9389 13.6206 14.1504 14.5898 14.1504C15.5591 14.1504 16.3477 14.9389 16.3477 15.9082V18.5449ZM11.0742 18.5449C11.0742 19.5142 10.2857 20.3027 9.31641 20.3027C8.34715 20.3027 7.55859 19.5142 7.55859 18.5449V15.9082C7.55859 14.9389 8.34715 14.1504 9.31641 14.1504C10.2857 14.1504 11.0742 14.9389 11.0742 15.9082V18.5449ZM33.9258 5.09766C33.9258 4.1284 34.7143 3.33984 35.6836 3.33984C36.6529 3.33984 37.4414 4.1284 37.4414 5.09766V7.73438C37.4414 8.70363 36.6529 9.49219 35.6836 9.49219C34.7143 9.49219 33.9258 8.70363 33.9258 7.73438V5.09766ZM23.3789 5.09766C23.3789 4.1284 24.1675 3.33984 25.1367 3.33984C26.106 3.33984 26.8945 4.1284 26.8945 5.09766V7.73438C26.8945 8.70363 26.106 9.49219 25.1367 9.49219C24.1675 9.49219 23.3789 8.70363 23.3789 7.73438V5.09766ZM21.6211 7.29492V7.73438C21.6211 9.67289 23.1982 11.25 25.1367 11.25C27.0752 11.25 28.6523 9.67289 28.6523 7.73438V7.29492H32.168V7.73438C32.168 9.67289 33.7451 11.25 35.6836 11.25C37.6221 11.25 39.1992 9.67289 39.1992 7.73438V7.29492H43.2422V16.3477H18.1055V15.9082C18.1055 13.9697 16.5284 12.3926 14.5898 12.3926C13.5406 12.3926 12.5978 12.8552 11.9531 13.5866C11.3084 12.8552 10.3656 12.3926 9.31641 12.3926C7.37789 12.3926 5.80078 13.9697 5.80078 15.9082V16.3477H1.75781V7.29492H21.6211ZM1.75781 37.9688V28.916H21.6211V29.3555C21.6211 31.294 23.1982 32.8711 25.1367 32.8711C26.186 32.8711 27.1288 32.4084 27.7734 31.6771C28.4181 32.4084 29.3609 32.8711 30.4102 32.8711C31.4594 32.8711 32.4022 32.4084 33.0469 31.6771C33.6916 32.4084 34.6344 32.8711 35.6836 32.8711C37.6221 32.8711 39.1992 31.294 39.1992 29.3555V28.916H43.2422V37.9688H1.75781Z" fill="#494949"/>
</svg>
