<svg width="45" height="45" viewBox="0 0 45 45" fill="none" xmlns="http://www.w3.org/2000/svg">
<g clip-path="url(#clip0)">
<path d="M36.5616 36.6494C37.047 36.6494 37.4405 36.2559 37.4405 35.7705C37.4405 35.2851 37.047 34.8916 36.5616 34.8916C36.0761 34.8916 35.6826 35.2851 35.6826 35.7705C35.6826 36.2559 36.0761 36.6494 36.5616 36.6494Z" fill="#494949"/>
<path d="M0.878884 39.3741H3.73174C5.12152 39.3741 6.91743 39.9848 8.99696 40.6918C11.9345 41.6907 15.5904 42.9338 19.7657 42.9774C24.2743 43.0235 28.3256 41.6725 32.1642 39.3066C32.633 39.0177 33.1028 38.7341 33.5607 38.4638C33.9786 38.217 34.1174 37.6781 33.8705 37.2602C33.6238 36.8422 33.0851 36.7034 32.6669 36.9503C32.1996 37.2262 31.7201 37.5157 31.2419 37.8103C27.4539 40.145 23.7109 41.2607 19.784 41.2198C15.8899 41.1792 12.5285 40.0362 9.56278 39.0278C7.3356 38.2703 5.41208 37.6163 3.73174 37.6163H1.75777V31.4641H2.71927C6.31443 31.4641 8.80404 30.0732 10.8046 28.9556C12.1938 28.1794 13.3938 27.5091 14.5895 27.5091C15.8875 27.5091 16.6215 27.9846 17.551 28.5865C18.9442 29.4889 20.1064 30.112 22.1597 30.2271C27.9638 30.55 29.2202 31.6489 29.2202 31.9036C29.2202 32.1302 28.6971 32.37 28.6219 32.4266C27.4664 33.0086 24.5391 33.6613 17.2261 33.6613C16.7408 33.6613 16.3472 34.0548 16.3472 34.5402C16.3472 35.0256 16.7408 35.4191 17.2261 35.4191C23.6893 35.4191 27.7306 34.9247 29.575 33.9096C31.1233 33.3548 33.1384 32.669 34.56 31.8099C37.1064 30.2692 40.3074 30.7123 42.5897 32.1203C41.6031 32.502 40.8435 32.799 39.7792 33.2658C39.3346 33.4607 39.1324 33.9791 39.3272 34.4236C39.5219 34.8675 40.04 35.0708 40.4852 34.8755C41.5832 34.3939 42.4529 34.0577 43.0878 33.8121C43.6796 33.5833 44.0937 33.4232 44.3835 33.2568C45.0552 32.8709 45.1388 32.2104 44.8221 31.7521C43.8051 30.2832 39.9258 28.556 36.4092 29.2416C35.7878 28.4369 35.1945 27.4733 34.5704 26.4596C32.9372 23.8064 31.2535 21.0725 28.6514 20.5632V13.447C28.6514 12.4777 29.4399 11.6892 30.4091 11.6892C35.2554 11.6892 39.198 7.74653 39.198 2.90037C39.198 2.41496 38.8044 2.02148 38.3191 2.02148H35.6824C32.2079 2.02148 29.198 4.04828 27.7725 6.98147C26.3472 4.04828 23.3373 2.02148 19.8628 2.02148H17.2261C16.7408 2.02148 16.3472 2.41496 16.3472 2.90037C16.3472 7.74653 20.2898 11.6892 25.1361 11.6892C26.1053 11.6892 26.8938 12.4777 26.8938 13.447V20.5445C24.3631 20.9342 22.992 22.9889 21.7686 24.8239C21.0244 25.94 20.3164 27.001 19.4131 27.669C19.1015 27.4958 18.8096 27.3074 18.5066 27.1112C17.4742 26.4427 16.4069 25.7514 14.5895 25.7514C12.936 25.7514 11.4842 26.5624 9.9473 27.4211C8.02992 28.4922 5.85679 29.7063 2.71927 29.7063H0.878884C0.393564 29.7063 0 30.0998 0 30.5852V38.4952C0 38.9806 0.393564 39.3741 0.878884 39.3741ZM25.1361 9.93144C21.5567 9.93144 18.5937 7.24285 18.1597 3.77925H19.8628C23.6008 3.77925 26.6669 6.71121 26.8818 10.3963C26.3672 10.1006 25.771 9.93144 25.1361 9.93144ZM35.6827 3.77837H37.3858C36.9518 7.24197 33.9887 9.93144 30.4094 9.93144C29.7745 9.93144 29.1782 10.1006 28.6637 10.3963C28.8785 6.71121 31.9447 3.77837 35.6827 3.77837ZM23.2311 25.7991C24.5058 23.8871 25.6067 22.2358 27.7727 22.2358C29.9066 22.2358 31.5167 24.8515 33.0737 27.3811C33.5771 28.199 34.093 29.0364 34.6339 29.7961C34.2962 29.9442 33.9675 30.114 33.6505 30.3059C32.9058 30.7559 31.9219 31.1715 30.9446 31.5427C30.6105 29.784 27.7595 28.778 22.2577 28.472C21.9151 28.4529 21.593 28.4147 21.2854 28.3564C22.0299 27.5984 22.6374 26.6894 23.2311 25.7991Z" fill="#494949"/>
</g>
<defs>
<clipPath id="clip0">
<rect width="45" height="45" fill="white"/>
</clipPath>
</defs>
</svg>
