<svg width="45" height="45" viewBox="0 0 45 45" fill="none" xmlns="http://www.w3.org/2000/svg">
<path d="M22.5 18.9844C20.5615 18.9844 18.9844 20.5615 18.9844 22.5C18.9844 24.4385 20.5615 26.0156 22.5 26.0156C24.4385 26.0156 26.0156 24.4385 26.0156 22.5C26.0156 20.5615 24.4385 18.9844 22.5 18.9844ZM22.5 24.2578C21.5307 24.2578 20.7422 23.4693 20.7422 22.5C20.7422 21.5307 21.5307 20.7422 22.5 20.7422C23.4693 20.7422 24.2578 21.5307 24.2578 22.5C24.2578 23.4693 23.4693 24.2578 22.5 24.2578Z" fill="white"/>
<path d="M40.3418 27.7734C40.8272 27.7734 41.2207 27.3799 41.2207 26.8945C41.2207 26.4091 40.8272 26.0156 40.3418 26.0156C39.8564 26.0156 39.4629 26.4091 39.4629 26.8945C39.4629 27.3799 39.8564 27.7734 40.3418 27.7734Z" fill="white"/>
<path d="M35.2111 15.2245C37.0465 8.90306 36.6233 4.45043 34.0137 2.94346C33.0069 2.36224 31.2054 1.97851 28.3407 3.45111C26.5274 4.38328 24.5209 5.94088 22.5005 7.97704C19.7147 5.15241 17.0387 3.29669 14.8356 2.65825C14.4524 1.12377 13.0651 0 11.4258 0C9.48727 0 7.91016 1.57711 7.91016 3.51562C7.91016 4.41765 8.26093 5.28047 8.86992 5.92673C8.13937 8.59843 8.86219 12.2778 9.74338 15.2362C3.53628 16.8674 0 19.4914 0 22.5C0 25.5086 3.53628 28.1326 9.74338 29.7638C8.86219 32.7224 8.13937 36.4017 8.86992 39.0733C8.26093 39.7196 7.91016 40.5824 7.91016 41.4844C7.91016 43.4229 9.48727 45 11.4258 45C13.0652 45 14.4524 43.8761 14.8356 42.3417C17.0383 41.7033 19.714 39.8479 22.5 37.0234C25.286 39.8478 27.9617 41.7033 30.1644 42.3417C30.5476 43.8761 31.9348 45 33.5742 45C35.5127 45 37.0898 43.4229 37.0898 41.4844C37.0898 40.5819 36.7388 39.7188 36.1301 39.0731C36.8606 36.4012 36.1376 32.7216 35.2564 29.7631C35.8465 29.6075 36.4187 29.4411 36.965 29.2657C37.4273 29.1174 37.6815 28.6224 37.5332 28.1602C37.3847 27.6979 36.8898 27.4438 36.4276 27.592C35.8832 27.7669 35.3106 27.9323 34.7187 28.0869C34.0983 26.2775 33.3268 24.4007 32.4186 22.4917C33.3159 20.5928 34.0764 18.7185 34.6857 16.9045C39.9113 18.2638 43.2422 20.4257 43.2422 22.5C43.2422 22.9717 43.0691 23.4553 42.7279 23.9374C42.4473 24.3335 42.5411 24.882 42.9372 25.1625C43.3333 25.443 43.8819 25.3492 44.1624 24.953C44.7182 24.1682 45 23.3429 45 22.5C45 19.4825 41.4469 16.8541 35.2111 15.2245ZM29.1444 5.01451C30.3368 4.40147 31.9968 3.80883 33.1347 4.46581C34.9175 5.49527 35.0446 9.51829 33.4985 14.8176C31.5951 14.4076 29.5603 14.1093 27.4353 13.9252C26.2496 12.2463 24.9993 10.6799 23.7081 9.25541C25.612 7.32981 27.4804 5.86986 29.1444 5.01451ZM22.5 34.4595C21.5941 33.4534 20.7076 32.3727 19.8497 31.2279C20.7269 31.2681 21.6129 31.2891 22.5 31.2891C23.3871 31.2891 24.2732 31.2681 25.1503 31.2279C24.2924 32.3728 23.4059 33.4535 22.5 34.4595ZM22.4967 10.5377C23.4048 11.546 24.2924 12.6275 25.1504 13.7723C23.399 13.6923 21.611 13.6921 19.8429 13.773C20.7035 12.6226 21.5911 11.5407 22.4967 10.5377ZM18.5349 29.3901C17.7843 28.2916 17.0706 27.1584 16.411 26.0157C15.7422 24.857 15.111 23.6762 14.5307 22.5C15.111 21.3238 15.7422 20.1431 16.411 18.9844C17.0786 17.8281 17.7909 16.6953 18.5315 15.6102C21.1613 15.4228 23.8748 15.424 26.4652 15.6099C27.2158 16.7085 27.9294 17.8416 28.5892 18.9845C29.2547 20.1372 29.885 21.3163 30.4666 22.4946C29.8897 23.6718 29.2595 24.8545 28.5892 26.0158C27.9295 27.1585 27.2159 28.2917 26.4653 29.3903C23.866 29.5765 21.1352 29.5766 18.5349 29.3901ZM14.8886 18.1056C14.4352 18.8909 13.999 19.6864 13.5828 20.4839C12.9798 19.1331 12.4509 17.8035 12.0012 16.5084C13.365 16.2192 14.7974 15.9877 16.2852 15.8176C15.8034 16.5657 15.3361 17.3305 14.8886 18.1056ZM13.5829 24.5161C13.999 25.3137 14.4353 26.1091 14.8887 26.8944C15.3327 27.6637 15.8007 28.4286 16.2871 29.1823C14.7986 29.0121 13.3655 28.7807 12.0013 28.4915C12.4509 27.1965 12.9798 25.8669 13.5829 24.5161ZM30.1114 26.8944C30.5654 26.1081 31.0012 25.3119 31.4158 24.514C32.02 25.8674 32.5492 27.1977 32.9987 28.4915C31.6346 28.7806 30.2017 29.0121 28.713 29.1823C29.1993 28.4286 29.6674 27.6637 30.1114 26.8944ZM30.1114 18.1056C29.6674 17.3363 29.1994 16.5715 28.713 15.8178C30.1904 15.9868 31.6124 16.216 32.9661 16.5018C32.5257 17.7966 32.0055 19.1241 31.4103 20.4709C30.9953 19.6759 30.5613 18.8847 30.1114 18.1056ZM21.2891 9.25225C20.002 10.668 18.7512 12.2356 17.5605 13.9251C15.4214 14.1103 13.3728 14.412 11.4559 14.8271C10.4752 11.5567 10.1267 8.76331 10.4554 6.89528C10.7678 6.98493 11.0935 7.03125 11.4258 7.03125C13.0242 7.03125 14.3759 5.95855 14.8014 4.49561C16.6316 5.16999 18.92 6.84369 21.2891 9.25225ZM11.4258 1.75781C12.3971 1.75781 13.1836 2.54355 13.1836 3.51562C13.1836 4.48488 12.395 5.27344 11.4258 5.27344C10.4523 5.27344 9.66797 4.47855 9.66797 3.51562C9.66797 2.54637 10.4565 1.75781 11.4258 1.75781ZM1.75781 22.5C1.75781 20.4317 5.07577 18.2729 10.2811 16.913C10.9017 18.7233 11.6719 20.5974 12.5771 22.5C11.6719 24.4027 10.9017 26.2769 10.2811 28.0871C5.07577 26.7271 1.75781 24.5683 1.75781 22.5ZM11.4258 43.2422C10.4565 43.2422 9.66797 42.4536 9.66797 41.4844C9.66797 40.5224 10.4513 39.7266 11.4258 39.7266C12.4624 39.7266 13.2512 40.6291 13.1817 41.5627C13.1812 41.5687 13.1808 41.5749 13.1805 41.5811C13.1309 42.5124 12.3602 43.2422 11.4258 43.2422ZM14.8014 40.5044C14.3759 39.0414 13.0242 37.9688 11.4258 37.9688C11.0935 37.9688 10.7678 38.0151 10.4554 38.1047C10.1268 36.2367 10.4752 33.4434 11.4559 30.1728C13.3741 30.588 15.4241 30.8898 17.5647 31.075C18.7524 32.756 20.0027 34.3225 21.2919 35.7449C18.9214 38.155 16.6321 39.8297 14.8014 40.5044ZM23.7081 35.7449C24.9972 34.3226 26.2476 32.7561 27.4353 31.075C29.5763 30.8898 31.6262 30.588 33.5441 30.1728C34.5248 33.4433 34.8733 36.2366 34.5447 38.1047C34.2322 38.015 33.9065 37.9688 33.5742 37.9688C31.9758 37.9688 30.6241 39.0414 30.1986 40.5044C28.3679 39.8297 26.0785 38.155 23.7081 35.7449ZM33.5742 43.2422C32.6398 43.2422 31.8691 42.5124 31.8196 41.5811C31.8193 41.5749 31.8189 41.5687 31.8184 41.5627C31.7492 40.6333 32.532 39.7266 33.5742 39.7266C34.5504 39.7266 35.332 40.5238 35.332 41.4844C35.332 42.4536 34.5435 43.2422 33.5742 43.2422Z" fill="white"/>
</svg>
