<svg width="45" height="45" viewBox="0 0 45 45" fill="none" xmlns="http://www.w3.org/2000/svg">
<g clip-path="url(#clip0)">
<path d="M7.88588 37.3375C7.40051 37.3375 7.0069 37.731 7.0069 38.2164C7.0069 38.7019 7.40051 39.0954 7.88588 39.0954H13.6951C13.2999 39.7078 13.0871 40.4208 13.0871 41.1664C13.0871 41.9291 13.3121 42.6398 13.698 43.2374H9.3319C8.84652 43.2374 8.45291 43.6309 8.45291 44.1164C8.45291 44.6018 8.84652 44.9953 9.3319 44.9953H39.6029C40.0882 44.9953 40.4818 44.6018 40.4818 44.1164C40.4818 43.6309 40.0882 43.2374 39.6029 43.2374C38.4615 43.2374 37.5328 42.3084 37.5328 41.1664C37.5328 40.0439 38.4807 39.0954 39.6029 39.0954C40.0882 39.0954 40.4818 38.7019 40.4818 38.2164C40.4818 37.731 40.0882 37.3375 39.6029 37.3375H34.0463C34.4321 36.7399 34.6572 36.0292 34.6572 35.2665C34.6572 34.2447 34.2593 33.2832 33.5355 32.5582C33.3493 32.3723 33.1472 32.2084 32.9328 32.0667V30.3242C32.9328 28.4704 31.4245 26.9621 29.5707 26.9621H26.4651V23.2932C28.7626 22.7 30.9359 21.5066 32.7316 19.711C34.2324 18.2102 35.3392 16.4367 36.0212 14.4398C36.1781 13.9803 35.9328 13.4808 35.4736 13.3239C35.0141 13.1671 34.5146 13.4122 34.3577 13.8716C33.7632 15.6122 32.7979 17.1586 31.4885 18.4679C27.0199 22.9364 19.8741 23.1356 15.166 19.0661L17.1653 17.0669C18.8927 18.499 21.0174 19.2156 23.1423 19.2156C25.5424 19.2156 27.9424 18.3022 29.7697 16.4752C29.7698 16.4751 29.7701 16.4749 29.7703 16.4747C29.7705 16.4745 29.7706 16.4743 29.7708 16.4741C33.2153 13.029 33.4121 7.54809 30.3625 3.86964L32.0873 2.14481C33.2231 3.46073 34.0646 5.01293 34.5403 6.68019C34.6505 7.06641 35.0024 7.31815 35.3851 7.31815C35.4649 7.31815 35.5461 7.30717 35.6267 7.28422C36.0935 7.15097 36.364 6.66463 36.2307 6.1978C35.5929 3.96299 34.383 1.9088 32.7316 0.257366C32.5668 0.0926449 32.3432 0 32.1101 0C31.877 0 31.6535 0.0926449 31.4886 0.257454L29.1195 2.62667C25.4409 -0.422967 19.96 -0.226163 16.5149 3.21831C16.5148 3.21849 16.5145 3.21866 16.5143 3.21884C16.5142 3.21901 16.514 3.21928 16.5138 3.21945C13.0693 6.66454 12.8725 12.1454 15.9222 15.8239L13.2789 18.4672C13.1141 18.632 13.0214 18.8556 13.0214 19.0887C13.0214 19.3218 13.1141 19.5454 13.2789 19.7102C15.4901 21.9215 18.2727 23.2202 21.1558 23.6082V26.9622H18.0501C16.1962 26.9622 14.688 28.4705 14.688 30.3243V31.4376H7.88588C7.40051 31.4376 7.0069 31.8312 7.0069 32.3166C7.0069 32.8021 7.40051 33.1956 7.88588 33.1956C9.00799 33.1956 9.95589 34.144 9.95589 35.2666C9.95589 36.4085 9.02724 37.3375 7.88588 37.3375ZM28.5459 4.4815C28.5499 4.48554 28.5537 4.48985 28.5577 4.49389C28.7679 4.71478 28.7912 5.06426 28.6186 5.43212C27.8131 7.14781 26.6163 8.85567 25.0573 10.5185L22.471 7.93221C24.1422 6.37043 25.8678 5.18416 27.6105 4.4023C27.9805 4.23635 28.3295 4.26632 28.5459 4.4815ZM23.8142 11.7618C22.1513 13.3208 20.4434 14.5175 18.7277 15.3229C18.3602 15.4954 18.0112 15.472 17.7904 15.2629C17.7858 15.2585 17.781 15.2542 17.7765 15.2497C17.5618 15.0333 17.532 14.6848 17.698 14.3149C18.4798 12.5723 19.6661 10.8466 21.2279 9.17545L23.8142 11.7618ZM19.8702 16.7223C21.6323 15.8392 23.3725 14.5911 25.0576 13.0052L27.8686 15.8162C25.5659 17.642 22.4442 17.9443 19.8702 16.7223ZM29.1117 14.5731L26.3007 11.7621C27.8865 10.0771 29.1346 8.33681 30.0178 6.57462C31.2399 9.14864 30.9377 12.2703 29.1117 14.5731ZM26.4661 2.99672C24.6776 3.86058 22.9204 5.10004 21.2275 6.68889L18.416 3.87737C20.7342 2.03933 23.8821 1.74584 26.4661 2.99672ZM17.1729 5.12043L19.9844 7.93195C18.3955 9.62478 17.1561 11.382 16.2922 13.1704C15.0414 10.5867 15.3348 7.43866 17.1729 5.12043ZM22.9138 26.9619V23.7392C23.5141 23.744 24.1127 23.7081 24.7072 23.6343V26.9618H22.9138V26.9619ZM36.3845 43.2373H16.916C15.7741 43.2373 14.8451 42.3083 14.8451 41.1663C14.8451 40.0372 15.7868 39.0953 16.916 39.0953H36.3932C35.9908 39.7105 35.775 40.424 35.775 41.1663C35.775 41.9288 35.9988 42.6398 36.3845 43.2373ZM16.4459 30.3243C16.4459 29.4398 17.1656 28.7202 18.0501 28.7202H29.5708C30.4553 28.7202 31.1749 29.4398 31.1749 30.3243V31.4376H16.4459V30.3243ZM30.8284 33.1956C31.3813 33.1956 31.9016 33.4111 32.2925 33.8013C32.6838 34.1932 32.8993 34.7136 32.8993 35.2665C32.8993 36.4084 31.9703 37.3375 30.8283 37.3375H11.1044C11.49 36.74 11.7139 36.029 11.7139 35.2665C11.7139 34.5242 11.4981 33.8107 11.0957 33.1955H30.8284V33.1956Z" fill="#494949"/>
<path d="M4.66431 44.6129C4.92722 45.0141 5.48625 45.1185 5.88258 44.8555C6.28217 44.5904 6.38923 44.0351 6.12518 43.6372C5.86008 43.2376 5.30483 43.1307 4.90691 43.3946C4.51154 43.6568 4.3942 44.2189 4.66431 44.6129Z" fill="#494949"/>
<path d="M35.6705 9.48247C35.2006 9.57072 34.8876 10.0499 34.9805 10.5153C35.0741 10.9836 35.5452 11.3002 36.0142 11.2053C36.4824 11.1105 36.7993 10.6426 36.7042 10.1725C36.6093 9.70345 36.1413 9.38745 35.6705 9.48247Z" fill="#494949"/>
</g>
<defs>
<clipPath id="clip0">
<rect width="45" height="45" fill="white"/>
</clipPath>
</defs>
</svg>
