<svg width="41" height="45" viewBox="0 0 41 45" fill="none" xmlns="http://www.w3.org/2000/svg">
<path d="M40.6294 21.3064C40.3492 18.4793 39.381 15.3563 37.9032 12.5128C36.0603 8.96643 33.5104 5.95969 30.5293 3.81771C27.0038 1.28443 22.9973 0 18.6214 0C15.8184 0 13.1271 0.614795 10.6222 1.82733C10.1853 2.0388 10.0025 2.56447 10.214 3.00138C10.4256 3.43819 10.9511 3.62092 11.388 3.40954C13.6523 2.31354 16.086 1.75781 18.6214 1.75781C29.1919 1.75781 34.5363 9.84595 36.3435 13.3234C39.0921 18.6126 39.7759 24.579 37.9339 27.2018C37.2634 28.1568 35.9348 28.0522 33.7529 26.8728C33.7444 26.8683 33.7357 26.8637 33.727 26.8594C32.3874 26.1918 31.0153 26.3522 30.146 27.2776C29.1946 28.2907 29.0997 29.9109 29.9098 31.3096C30.3897 32.1381 30.9462 33.9009 31.1077 35.9716C31.2793 38.1711 30.9571 40.0787 30.2004 41.3432C29.4026 42.6766 28.1504 43.2966 26.3748 43.2385C20.8605 43.0583 14.6917 40.0631 9.87308 35.2262C4.89724 30.2316 2.04343 24.0544 2.04343 18.2784C2.04343 14.5433 3.26344 11.0197 5.57162 8.08866C5.87195 7.7073 5.8062 7.15474 5.42493 6.85441C5.04358 6.55409 4.49101 6.61983 4.19069 7.0011C1.63606 10.2451 0.285706 14.1448 0.285706 18.2784C0.285706 24.5159 3.32628 31.1453 8.62784 36.4668C11.098 38.9463 13.9775 41.0328 16.9549 42.5007C20.1094 44.0561 23.2594 44.8953 26.3174 44.9953C26.4094 44.9982 26.5004 44.9997 26.5908 44.9997C28.8626 44.9997 30.6285 44.0512 31.7089 42.2457C32.9164 40.2277 33.0015 37.6456 32.8603 35.8348C32.6993 33.7717 32.1383 31.6496 31.4309 30.4284C30.9506 29.5992 31.0923 28.8376 31.4273 28.481C31.7568 28.1302 32.2904 28.1109 32.9307 28.4266C33.7039 28.8439 34.7259 29.3439 35.7995 29.5315C37.7476 29.872 38.8177 29.0019 39.3724 28.212C40.4697 26.6498 40.916 24.1973 40.6294 21.3064Z" fill="#494949"/>
</svg>
